<?xml version="1.0" standalone="no"?>
<!DOCTYPE svg PUBLIC "-//W3C//DTD SVG 1.1//EN" "http://www.w3.org/Graphics/SVG/1.1/DTD/svg11.dtd">
<svg xmlns="http://www.w3.org/2000/svg">
<metadata>Generated by Fontastic.me</metadata>
<defs>
<font id="wdi-icons" horiz-adv-x="512">
<font-face font-family="wdi-icons" units-per-em="512" ascent="480" descent="-32"/>
<missing-glyph horiz-adv-x="512" />

<glyph glyph-name="caret-right" unicode="&#85;" d="M329 256c0-5-2-9-5-13l-128-128c-4-3-8-5-13-5-5 0-9 2-13 5-4 4-5 8-5 13l0 256c0 5 1 9 5 13 4 3 8 5 13 5 5 0 9-2 13-5l128-128c3-4 5-8 5-13z"/>
<glyph glyph-name="arrange" unicode="&#97;" d="M400 64c-1 0-2 0-3 0-7 1-14 4-20 9l-85 92c-3 3-4 7-4 12 0 4 2 8 5 11 3 2 7 4 11 4 4 0 9-2 12-5l68-74 0 319c0 9 7 16 16 16 9 0 16-7 16-16l0-319 68 74c3 3 8 5 12 5 4 0 8-2 11-4 3-3 5-7 5-11 0-5-1-9-4-12l-85-91c-5-6-12-9-20-10-1 0-2 0-3 0z m-363 224c-20 0-37 17-37 37l0 150c0 20 17 37 37 37l150 0c20 0 37-17 37-37l0-150c0-20-17-37-37-37z m0 192c-3 0-5-2-5-5l0-150c0-3 2-5 5-5l150 0c3 0 5 2 5 5l0 150c0 3-2 5-5 5z m11-480c-26 0-48 22-48 48 0 9 7 16 16 16 9 0 16-7 16-16 0-9 7-16 16-16 9 0 16-7 16-16 0-9-7-16-16-16z m-32 160c-9 0-16 7-16 16 0 26 22 48 48 48 9 0 16-7 16-16 0-9-7-16-16-16-9 0-16-7-16-16 0-9-7-16-16-16z m160-160c-9 0-16 7-16 16 0 9 7 16 16 16 9 0 16 7 16 16 0 9 7 16 16 16 9 0 16-7 16-16 0-26-22-48-48-48z m32 160c-9 0-16 7-16 16 0 9-7 16-16 16-9 0-16 7-16 16 0 9 7 16 16 16 26 0 48-22 48-48 0-9-7-16-16-16z m-112-160c-9 0-16 7-16 16 0 9 7 16 16 16l32 0c9 0 16-7 16-16 0-9-7-16-16-16z m0 192c-9 0-16 7-16 16 0 9 7 16 16 16l32 0c9 0 16-7 16-16 0-9-48-16-48-16z m-80-112c-9 0-16 7-16 16l0 32c0 9 7 16 16 16 9 0 16-7 16-16l0-32c0-9-7-16-16-16z m192 0c-9 0-16 7-16 16l0 32c0 9 7 16 16 16 9 0 16-7 16-16l0-32c0-9-7-16-16-16z"/>
<glyph glyph-name="bottle" unicode="&#98;" d="M310 357c0-1 1-3 2-4l43-52c5-6 8-13 8-21l0-248c0-18-15-32-32-32l-128 0c-18 0-32 14-32 32l0 248c0 8 2 15 7 21l44 52c1 2 2 4 2 7l0 120c0 18 14 32 32 32l21 0c18 0 32-14 32-32l0-120c0-1 0-2 1-3z m-15-18c-4 6-7 13-7 21l0 67-43 0 0-67c0-8-2-15-7-21l-44-52c-1-2-2-4-2-7l0-248c0-6 5-11 11-11l128 0c6 0 10 5 10 11l0 248c0 3-1 5-2 7z m-7 109l0 32c0 6-5 11-11 11l-21 0c-6 0-11-5-11-11l0-32z"/>
<glyph glyph-name="bottle-thin" unicode="&#99;" d="M332 8c10 0 18 8 18 18l0 255c0 4-1 8-4 11l-46 54c-4 5-6 11-6 17l0 123c0 10-8 18-18 18l-23 0c-10 0-18-8-18-18l0-123c0-6-3-12-7-17l-45-54c-3-3-5-7-5-11l0-255c0-10 9-18 19-18z m-135-8c-15 0-26 12-26 26l0 255c0 6 2 12 6 16l46 54c2 3 4 7 4 12l0 123c0 14 12 26 26 26l23 0c14 0 26-12 26-26l0-123c0-5 2-9 4-12l46-54c4-4 6-10 6-16l0-255c0-14-12-26-26-26z m35 448l65 0c0-4-1-7-3-7l-59 0c-2 0-3 3-3 7z"/>
<glyph glyph-name="calendar" unicode="&#100;" d="M48 0c-26 0-48 22-48 48l0 352c0 26 22 48 48 48l80 0 0 48c0 9 7 16 16 16 9 0 16-7 16-16l0-48 192 0 0 48c0 9 7 16 16 16 9 0 16-7 16-16l0-48 80 0c26 0 48-22 48-48l0-352c0-26-22-48-48-48z m-16 48c0-9 7-16 16-16l416 0c9 0 16 7 16 16l0 240-448 0z m448 272l0 80c0 9-7 16-16 16l-80 0 0-32c0-9-7-16-16-16-9 0-16 7-16 16l0 32-192 0 0-32c0-9-7-16-16-16-9 0-16 7-16 16l0 32-80 0c-9 0-16-7-16-16l0-80z m-360-128c-13 0-24 11-24 24 0 13 11 24 24 24 13 0 24-11 24-24 0-13-11-24-24-24z m0-112c-13 0-24 11-24 24 0 13 11 24 24 24 13 0 24-11 24-24 0-13-11-24-24-24z m136 112c-13 0-24 11-24 24 0 13 11 24 24 24 13 0 24-11 24-24 0-13-11-24-24-24z m0-112c-13 0-24 11-24 24 0 13 11 24 24 24 13 0 24-11 24-24 0-13-11-24-24-24z m136 112c-13 0-24 11-24 24 0 13 11 24 24 24 13 0 24-11 24-24 0-13-11-24-24-24z m0-112c-13 0-24 11-24 24 0 13 11 24 24 24 0 0 1 0 1 0 0 0 0 0 1 0 12-1 22-11 22-24 0-13-11-24-24-24z"/>
<glyph glyph-name="calendar-schedule" unicode="&#101;" d="M375 0c-76 0-137 62-137 137 0 76 61 137 137 137 75 0 137-61 137-137 0-75-62-137-137-137z m0 253c-64 0-116-52-116-116 0-64 52-116 116-116 64 0 116 52 116 116 0 64-52 116-116 116z m0-143c-5 0-9 5-9 11l0 69c0 6 4 11 9 11 5 0 9-5 9-11l0-57 27 0c5 0 10-6 10-12 0-6-5-11-10-11z m-342 0c-18 0-33 14-33 31l0 297c0 17 15 32 33 32l76 0 0 31c0 6 5 11 11 11 6 0 11-5 11-11l0-31 196 0 0 31c0 6 4 11 10 11 6 0 11-5 11-11l0-31 76 0c18 0 33-15 33-32l0-138c0-6-5-10-11-10-6 0-11 4-11 10l0 43-413 0 0-202c0-5 5-10 11-10l174 0c6 0 11-5 11-11 0-6-5-10-11-10z m402 254l0 74c0 6-5 10-11 10l-76 0 0-52c0-6-5-11-11-11-6 0-10 5-10 11l0 52-196 0 0-52c0-6-5-11-11-11-6 0-11 5-11 11l0 52-76 0c-6 0-11-4-11-10l0-74z"/>
<glyph glyph-name="download" unicode="&#105;" d="M256 160c-2 0-4 0-6 1 0 0 0 0 0 0-2 1-4 2-5 4l-96 96c-3 3-5 7-5 11 0 4 2 8 5 11 3 3 7 5 11 5 4 0 8-2 11-5l69-68 0 217c0 9 7 16 16 16 9 0 16-7 16-16l0-217 69 68c3 3 7 5 11 5 4 0 8-2 11-5 3-3 5-7 5-11 0-4-2-8-5-11l-96-96c-1-2-3-3-5-4 0 0 0 0 0 0-2-1-4-1-6-1z m-176-96c-44 0-80 36-80 80l0 32c0 9 7 16 16 16 9 0 16-7 16-16l0-32c0-26 22-48 48-48l352 0c26 0 48 22 48 48l0 32c0 9 7 16 16 16 9 0 16-7 16-16l0-32c0-44-36-80-80-80z"/>
<glyph glyph-name="empty-media" unicode="&#106;" d="M373 379l-54 0c-11 0-19 8-19 19l0 54c-3 0-7 0-10 0l-177 0c-6 0-11-4-11-10l0-309c0-6 5-11 11-11l44 0c2 0 4-2 4-4 0-2-2-4-4-4l-44 0c-11 0-19 8-19 19l0 309c0 10 8 19 19 19l177 0c5 0 10-1 15-1 0 0 0 0 0 0 44-8 77-46 77-91l0-89c0-2-2-4-4-4-3 0-4 2-4 4l0 89c0 3-1 6-1 10z m-1 8c-8 31-32 56-63 63l0-52c0-6 4-11 10-11z m-92-265c-2-2-5-2-6 0-2 2-2 4 0 6l75 76c6 5 14 8 22 6 7-2 13-8 15-16 2-8 0-16-6-22l-102-102c-15-15-40-15-56 0-15 16-15 41 0 56l107 107c20 21 54 21 75 0 20-21 20-54 0-75l-76-76c-1-1-4-1-6 0-1 2-1 5 0 6l76 76c17 17 17 46 0 63-18 17-46 17-63 0l-107-107c-12-12-12-32 0-44 12-12 32-12 44 0l102 103c4 3 5 8 4 13-1 4-5 8-10 9-4 2-9 0-13-3z"/>
<glyph glyph-name="empty-pos-categories" unicode="&#107;" d="M21 337l0 7 15 0 0-7z m30 0l0 7 15 0 0-7z m30 0l0 7 15 0 0-7z m30 0l0 7 15 0c0 0 0 0 0 0l0-7c0 0 0 0 0 0z m25-5l6 4c3-3 5-8 5-13l0-3-8 0 0 3c0 3-1 6-3 9z m3-27l8 0 0-15-8 0z m0-30l8 0 0-15-8 0z m0-30l8 0 0-15-8 0z m0-30l8 0 0-5c0-4-1-8-4-12l-6 5c2 2 2 4 2 7z m-12-18l1-8c-1 0-1 0-2 0l-13 0 0 7 13 0c0 0 1 1 1 1z m-29-1l0-7-15 0 0 7z m-30 0l0-7-15 0 0 7z m-30 0l0-7-15 0 0 7z m-26 4l-5-5c-5 4-7 9-7 15l0 1 7 0 0-1c0-4 2-7 5-10z m-5 26l-7 0 0 15 7 0z m0 30l-7 0 0 15 7 0z m0 30l-7 0 0 15 7 0z m0 30l-7 0 0 7c0 3 1 7 2 10l7-4c-1-2-2-4-2-6z m11 20l-2 8c2 0 4 0 5 0l0-7c-1 0-2 0-3-1z m185-47l0 7 15 0 0-7z m30 0l0 7 15 0 0-7z m30 0l0 7 15 0 0-7z m30 0l0 7 14 0c0 0 1 0 1 0l0-7c-1 0-1 0-1 0z m25-5l6 5c3-4 4-9 4-14l0-3-7 0 0 3c0 3-1 6-3 9z m3-27l7 0 0-15-7 0z m0-30l7 0 0-15-7 0z m0-30l7 0 0-15-7 0z m0-30l7 0 0-5c0-4-1-8-3-11l-6 4c1 2 2 5 2 7z m-12-18l1-8c-1 0-2 0-3 0l-13 0 0 8 13 0c1 0 1 0 2 0z m-30 0l0-8-15 0 0 8z m-30 0l0-8-15 0 0 8z m-30 0l0-8-15 0 0 8z m-26 3l-5-5c-4 4-7 9-7 15l0 1 8 0 0-1c0-3 2-7 4-10z m-4 26l-8 0 0 15 8 0z m0 30l-8 0 0 15 8 0z m0 30l-8 0 0 15 8 0z m0 30l-8 0 0 7c0 3 1 7 3 10l6-4c-1-2-1-4-1-6z m11 21l-2 7c1 0 3 0 5 0l0-7c-1 0-2 0-3 0z m184 77l0 7 15 0 0-7z m30 0l0 7 15 0 0-7z m30 0l0 7 15 0 0-7z m30 0l0 7 14 0c0 0 1 0 1 0l0-7c-1 0-1 0-1 0z m25-5l6 5c3-4 5-9 5-14l0-3-8 0 0 3c0 3-1 6-3 9z m3-27l8 0 0-15-8 0z m0-30l8 0 0-15-8 0z m0-30l8 0 0-15-8 0z m0-30l8 0 0-5c0-4-2-8-4-11l-6 4c1 2 2 5 2 7z m-12-18l1-8c-1 0-2 0-3 0l-13 0 0 8 13 0c1 0 1 0 2 0z m-30 0l0-8-15 0 0 8z m-30 0l0-8-15 0 0 8z m-30 0l0-8-14 0 0 8z m-26 3l-5-5c-4 4-6 9-6 15l0 1 7 0 0-1c0-3 2-7 4-10z m-4 26l-7 0 0 15 7 0z m0 30l-7 0 0 15 7 0z m0 30l-7 0 0 15 7 0z m0 30l-7 0 0 7c0 3 0 7 2 10l7-4c-1-2-2-4-2-6z m11 21l-2 7c2 0 3 0 5 0l0-7c-1 0-2 0-3 0z m-324-65l1 0c3 0 5-2 5-5l0-17c0 0 0 0 0 0l6-8c1-1 1-2 1-3l0-35c0-2-2-4-4-4l-18 0c-3 0-5 2-5 4l0 35c0 1 1 2 1 3l6 8c1 0 1 0 1 0l0 17c0 3 2 5 4 5z m4-24c-1 0-1 1-1 2l0 10-6 0 0-10c0-1-1-2-1-2l-6-8c-1 0-1 0-1-1l0-35c0-1 1-1 2-1l18 0c1 0 1 0 1 1l0 35c0 1 0 1 0 1z m-1 15l0 4c0 1-1 2-2 2l-3 0c-1 0-1-1-1-2l0-4z m30 9l2 0c2 0 4-2 4-5l0-17c0 0 0 0 0 0l7-8c0-1 1-2 1-3l0-35c0-2-2-4-5-4l-18 0c-2 0-4 2-4 4l0 35c0 1 0 2 1 3l6 8c0 0 0 0 0 0l0 17c0 3 2 5 5 5z m4-24c0 0-1 1-1 2l0 10-6 0 0-10c0-1 0-2-1-2l-6-8c0 0 0 0 0-1l0-35c0-1 0-1 1-1l18 0c1 0 2 0 2 1l0 35c0 1 0 1-1 1z m-1 15l0 4c0 1-1 2-1 2l-3 0c-1 0-2-1-2-2l0-4z m148-103c-2 0-3 1-3 2l0 31-2-2c0 0 0 0 0-1-1 0-1 0-2 0 0 0 0 0 0 0-1 1-2 1-2 2l-5 10c0 1 0 2 1 3l9 9c1 1 3 2 4 2l4 0c1 1 1 1 1 1l1 1c1 1 3 2 4 2l11 0c1 0 2 0 2 0 0 0 0 0 0 0 1-1 2-1 3-2l1-1c0 0 0 0 0-1l4 0c2 0 4-1 5-2l9-9c1-1 1-2 1-3l-6-10c0-1 0-1 0-1 0-1-1-1-2-1 0 0-1 0-2 1l-1 2 0-31c0-1-2-2-3-2z m-2 37c1 0 1 0 1 0 0 0 1 0 1-1l0-34 32 0 0 34c0 1 0 1 1 1 0 0 0 0 0 0 1 0 1 0 1 0l4-4 5 10-9 10c-1 0-2 1-3 1l-3 0c-1-1-1-1-1-1l-4-8c-1 0-1-1-2-1 0 0 0 0-1 0 0 0 0 0-1 1 0 0 0 0 0 0l-2 1 0-10c0 0 0-1-1-1-1 0-1 1-1 1l0 10-2-1c-1-1-1-1-2-1 0 0 0 0 0 0-1 0-1 1-2 1 0 0 0 0 0 0l-4 8c-1 0-1 0-1 1l-4 0c-1 0-2-1-2-1l-10-10 5-10 4 4c1 0 1 0 1 0z m22 10l5 7c0 0 0 1 0 1l-1 1c0 0 0 1-1 1l-5-8z m-12 10c0 0 0-1 0-1l-1-1c-1 0-1-1 0-1l4-7 3 2z m8-6l5 6-10 0z m172 20c-1 0-1 0-1 1 0 1 0 1 1 1l7 0 0 22c-10 0-18 9-18 18 0 0 0 1 0 1l3 19c0 1 1 2 3 2l27 0c1 0 2-1 2-2l3-19c0 0 0-1 0-1 0-9-8-18-18-18l0-22 7 0c1 0 1 0 1-1 0-1 0-1-1-1z m-8 42c0-8 7-16 16-16 9 0 16 8 16 16l0 3-32 0z m31 6l-1 13-27 0-2-13z"/>
<glyph glyph-name="empty-pos-profiles" unicode="&#108;" d="M386 130c31 0 57-26 57-57l0-17c0-3-2-4-5-4-2 0-4 1-4 4l0 17c0 27-21 48-48 48l-52 0c-2 0-4 2-4 5l0 94c0 12-10 21-22 21-12 0-22-9-22-21l0-148c0-5-5-6-8-3l-20 25c-7 9-21 11-31 4-9-6-12-20-6-30l6-10c2-2 1-5-1-6-2-1-5 0-6 2l-6 9c-9 14-5 33 8 42 14 10 32 7 43-6l12-15 0 136c0 16 14 30 31 30 17 0 30-14 30-30l0-90z m-209-70c2 0 4-2 4-4 0-3-2-4-4-4l-70 0c-21 0-39 17-39 39l0 331c0 21 18 39 39 39l244 0c22 0 39-18 39-39l0-262c0-2-2-4-4-4-2 0-4 2-4 4l0 262c0 17-14 30-31 30l-244 0c-17 0-30-13-30-30l0-331c0-17 13-31 30-31z m17 70c3 0 5-2 5-4 0-3-2-5-5-5l-87 0c-2 0-4 2-4 5l0 278c0 3 2 5 4 5l244 0c3 0 5-2 5-5l0-122c0-2-2-4-5-4-2 0-4 2-4 4l0 118-235 0 0-270z m-48 218l0-27 27 0 0 27z m0 8l27 0c5 0 8-4 8-8l0-27c0-4-3-8-8-8l-27 0c-4 0-8 4-8 8l0 27c0 4 4 8 8 8z m70-8l0-27 26 0 0 27z m0 8l26 0c5 0 9-4 9-8l0-27c0-4-4-8-9-8l-26 0c-5 0-8 4-8 8l0 27c0 4 3 8 8 8z m70-8l0-27 26 0 0 27z m0 8l26 0c5 0 9-4 9-8l0-27c0-4-4-8-9-8l-26 0c-5 0-9 4-9 8l0 27c0 4 4 8 9 8z m-140-78l0-26 27 0 0 26z m0 9l27 0c5 0 8-4 8-9l0-26c0-5-3-9-8-9l-27 0c-4 0-8 4-8 9l0 26c0 5 4 9 8 9z m70-9l0-26 26 0 0 26z m0 9l26 0c5 0 9-4 9-9l0-26c0-5-4-9-9-9l-26 0c-5 0-8 4-8 9l0 26c0 5 3 9 8 9z m-70-79l0-26 27 0 0 26z m0 9l27 0c5 0 8-4 8-9l0-26c0-5-3-8-8-8l-27 0c-4 0-8 3-8 8l0 26c0 5 4 9 8 9z m70-9l0-26 26 0 0 26z m0 9l26 0c5 0 9-4 9-9l0-26c0-5-4-8-9-8l-26 0c-5 0-8 3-8 8l0 26c0 5 3 9 8 9z m70 57c0-3-2-5-4-5-3 0-5 2-5 5 0 7 6 13 13 13l18 0c7 0 13-6 13-13 0-3-2-5-5-5-2 0-4 2-4 5 0 2-2 4-4 4l-18 0c-2 0-4-2-4-4z"/>
<glyph glyph-name="empty-product-groups" unicode="&#110;" d="M278 340l0 6 12 0 0-6z m24 0l0 6 12 0 0-6z m24 0l0 6 12 0 0-6z m24 0l0 6 11 0 0-6z m23 0l0 6 12 0 0-6z m24 0l0 6 12 0 0-6z m24 0l0 6 12 0 0-6z m24 0l0 6 12 0 0-6z m24 0l0 6 12 0 0-6z m24 0l0 6 2 0c4 0 8-1 11-4l-4-4c-2 1-4 2-7 2z m13-11l6 1c0-1 0-1 0-1l0-12-6 0 0 12c0 0 0 0 0 0z m0-24l6 0 0-12-6 0z m0-24l6 0 0-12-6 0z m0-24l6 0 0-12-6 0z m0-24l6 0 0-12-6 0z m0-24l6 0 0-12-6 0z m0-24l6 0 0-2c0-4-2-8-4-11l-5 4c2 2 3 4 3 7z m-11-13l0-6-12 0 0 6z m-24 0l0-6-12 0 0 6z m-24 0l0-6-12 0 0 6z m-24 0l0-6-12 0 0 6z m-24 0l0-6-12 0 0 6z m-24 0l0-6-11 0 0 6z m-23 0l0-6-12 0 0 6z m-24 0l0-6-12 0 0 6z m-24 0l0-6-12 0 0 6z m-24 0l0-6-2 0c-4 0-8 2-11 4l4 5c2-2 4-3 7-3z m-13 11l-6 0 0 12 6 0z m0 24l-6 0 0 12 6 0z m0 24l-6 0 0 12 6 0z m0 25l-6 0 0 12 6 0z m0 24l-6 0 0 12 6 0z m0 24l-6 0 0 12 6 0z m0 24l-6 0 0 1c0 5 2 9 5 12l4-4c-2-2-3-5-3-8z m64-42l-9 0 0-12c0-2 0-3-1-3l-7-9c0-1-1-1-1-2l0-41c0-1 1-3 3-3l21 0c2 0 3 2 3 3l0 41c0 1-1 1-1 2l-7 9c-1 0-1 1-1 3z m0 2l0 6c0 1-1 2-3 2l-3 0c-2 0-3-1-3-2l0-6z m4-74l-19 0c-3 0-5 2-5 5l0 41c0 1 0 1 0 2 1 0 1 1 1 1l8 9c0 0 0 1 0 2l0 20c0 2 2 4 5 4l3 0c3 0 5-2 5-4l0-20c0-1 0-2 0-2l8-9c0 0 0-1 1-1 0-1 0-1 0-2l0-41c0-3-2-5-5-5z m35 72l-9 0 0-12c0-2 0-3-1-3l-7-9c0-1-1-1-1-2l0-41c0-1 1-3 3-3l21 0c1 0 3 2 3 3l0 41c0 1-1 1-1 2l-7 9c-1 0-1 1-1 3z m0 2l0 6c0 1-1 2-3 2l-3 0c-2 0-3-1-3-2l0-6z m4-74l-19 0c-3 0-5 2-5 5l0 41c0 1 0 1 0 2 1 0 1 1 1 1l7 9c1 0 1 1 1 2l0 20c0 2 2 4 5 4l3 0c3 0 5-2 5-4l0-20c0-1 0-2 0-2l8-9c0 0 0-1 0-1 1-1 1-1 1-2l0-41c0-3-2-5-5-5z m74 72l-9 0 0-12c0-2 0-3-1-3l-7-9c-1-1-1-1-1-2l0-41c0-1 1-3 3-3l21 0c1 0 2 2 2 3l0 41c0 1 0 1 0 2l-7 9c-1 0-1 1-1 3z m0 2l0 6c0 1-2 2-3 2l-4 0c-1 0-2-1-2-2l0-6z m4-74l-19 0c-3 0-5 2-5 5l0 41c0 1 0 1 0 2 0 0 1 1 1 1l7 9c1 0 1 1 1 2l0 20c0 2 2 4 4 4l4 0c3 0 5-2 5-4l0-20c0-1 0-2 0-2l7-9c1 0 1-1 1-1 0-1 1-1 1-2l0-41c0-3-3-5-5-5z m-43 72l-9 0 0-12c0-2 0-3-1-3l-7-9c-1-1-1-1-1-2l0-41c0-1 1-3 3-3l21 0c1 0 2 2 2 3l0 41c0 1 0 1 0 2l-7 9c-1 0-1 1-1 3z m0 2l0 6c0 1-2 2-3 2l-3 0c-2 0-3-1-3-2l0-6z m4-74l-19 0c-3 0-5 2-5 5l0 41c0 1 0 1 0 2 1 0 1 1 1 1l7 9c1 0 1 1 1 2l0 20c0 2 2 4 5 4l3 0c3 0 5-2 5-4l0-20c0-1 0-2 0-2l8-9c0 0 0-1 0-1 1-1 1-1 1-2l0-41c0-3-2-5-5-5z m-396 126l0 6 12 0 0-6z m24 0l0 6 12 0 0-6z m24 0l0 6 12 0 0-6z m24 0l0 6 11 0 0-6z m23 0l0 6 12 0 0-6z m24 0l0 6 12 0 0-6z m24 0l0 6 12 0 0-6z m24 0l0 6 12 0 0-6z m24 0l0 6 12 0 0-6z m24 0l0 6 2 0c4 0 8-1 11-4l-4-4c-2 1-4 2-7 2z m13-11l6 1c0-1 0-1 0-1l0-12-6 0 0 12c0 0 0 0 0 0z m0-24l6 0 0-12-6 0z m0-24l6 0 0-12-6 0z m0-24l6 0 0-12-6 0z m0-24l6 0 0-12-6 0z m0-24l6 0 0-12-6 0z m0-24l6 0 0-2c0-4-2-8-4-11l-5 4c2 2 3 4 3 7z m-11-13l0-6-12 0 0 6z m-24 0l0-6-12 0 0 6z m-24 0l0-6-12 0 0 6z m-24 0l0-6-12 0 0 6z m-24 0l0-6-12 0 0 6z m-24 0l0-6-12 0 0 6z m-23 0l0-6-12 0 0 6z m-24 0l0-6-12 0 0 6z m-24 0l0-6-12 0 0 6z m-24 0l0-6-2 0c-4 0-8 2-11 4l4 5c2-2 4-3 7-3z m-13 11l-6 0 0 12 6 0z m0 24l-6 0 0 12 6 0z m0 24l-6 0 0 12 6 0z m0 25l-6 0 0 12 6 0z m0 24l-6 0 0 12 6 0z m0 24l-6 0 0 12 6 0z m0 24l-6 0 0 1c0 5 2 9 5 12l4-4c-2-2-3-5-3-8z m66-44l-9 0 0-13c0-1 0-2-1-2l-7-9c0-1-1-1-1-2l0-41c0-1 1-3 3-3l21 0c2 0 3 2 3 3l0 41c0 1-1 1-1 2l-7 9c-1 0-1 1-1 2z m0 2l0 6c0 1-1 2-3 2l-3 0c-2 0-3-1-3-2l0-6z m4-74l-19 0c-3 0-5 2-5 5l0 41c0 1 0 1 0 2 1 0 1 1 1 1l8 9c0 0 0 1 0 1l0 21c0 2 2 4 5 4l3 0c3 0 5-2 5-4l0-21c0 0 0-1 0-1l8-9c0 0 0-1 1-1 0-1 0-1 0-2l0-41c0-3-2-5-5-5z m35 72l-9 0 0-13c0-1 0-2-1-2l-7-9c-1-1-1-1-1-2l0-41c0-1 1-3 3-3l21 0c1 0 3 2 3 3l0 41c0 1-1 1-1 2l-7 9c-1 0-1 1-1 2z m0 2l0 6c0 1-1 2-3 2l-3 0c-2 0-3-1-3-2l0-6z m4-74l-19 0c-3 0-5 2-5 5l0 41c0 1 0 1 0 2 1 0 1 1 1 1l7 9c1 0 1 1 1 1l0 21c0 2 2 4 5 4l3 0c3 0 5-2 5-4l0-21c0 0 0-1 0-1l8-9c0 0 0-1 0-1 1-1 1-1 1-2l0-41c0-3-2-5-5-5z m74 72l-9 0 0-13c0-1 0-2-1-2l-7-9c-1-1-1-1-1-2l0-41c0-1 1-3 3-3l21 0c1 0 2 2 2 3l0 41c0 1 0 1 0 2l-7 9c-1 0-1 1-1 2z m0 2l0 6c0 1-2 2-3 2l-4 0c-1 0-2-1-2-2l0-6z m4-74l-19 0c-3 0-5 2-5 5l0 41c0 1 0 1 0 2 0 0 1 1 1 1l7 9c1 0 1 1 1 1l0 21c0 2 2 4 4 4l4 0c3 0 5-2 5-4l0-21c0 0 0-1 0-1l7-9c1 0 1-1 1-1 0-1 1-1 1-2l0-41c0-3-3-5-5-5z m-43 72l-9 0 0-13c0-1 0-2-1-2l-7-9c-1-1-1-1-1-2l0-41c0-1 1-3 3-3l21 0c1 0 2 2 2 3l0 41c0 1 0 1 0 2l-7 9c-1 0-1 1-1 2z m0 2l0 6c0 1-2 2-3 2l-3 0c-2 0-3-1-3-2l0-6z m4-74l-19 0c-3 0-5 2-5 5l0 41c0 1 0 1 0 2 1 0 1 1 1 1l7 9c1 0 1 1 1 1l0 21c0 2 2 4 5 4l3 0c3 0 5-2 5-4l0-21c0 0 0-1 0-1l8-9c0 0 0-1 0-1 1-1 1-1 1-2l0-41c0-3-2-5-5-5z"/>
<glyph glyph-name="empty-product-image" unicode="&#111;" d="M500 255l0 27-46 0c2-4 3-8 3-12 0-6-2-11-4-15z m0-6l-50 0c0 0-1 0-1 0-6-7-14-11-24-11-9 0-18 4-24 11 0 0 0 0 0 0l-50 0 0-19c0-1 1-2 2-2l145 0c1 0 2 1 2 2z m0 39l0 34c0 1-1 2-2 2l-145 0c-1 0-2-1-2-2l0-34 48 0c6 8 16 13 26 13 11 0 20-5 26-13z m-50-6l0 0c-1 0-2 1-2 3 0 0 0 0 0 0-5 8-13 12-23 12-9 0-18-4-23-12 0 0 0 0 0 0 0-2-1-3-2-3l0 0c-2-4-3-8-3-12 0-16 13-28 28-28 16 0 28 12 28 28 0 4-1 8-3 12z m-99-27l46 0c-2 4-3 9-3 15 0 4 0 8 2 12l-45 0z m109 72l0 5c0 5 4 9 8 9l13 0c5 0 9-4 9-9l0-5 8 0c3 0 5-2 5-5l0-92c0-3-2-5-5-5l-145 0c-3 0-6 2-6 5l0 92c0 3 3 5 6 5z m3 0l23 0 0 5c0 3-2 5-5 5l-13 0c-2 0-5-2-5-5z m-99-16l0-10 23 0 0 10z m0 3l23 0c2 0 4-1 4-3l0-10c0-2-2-4-4-4l-23 0c-2 0-3 2-3 4l0 10c0 2 1 3 3 3z m61-59c-8 0-15 6-15 15 0 8 7 14 15 14 8 0 15-6 15-14 0-9-7-15-15-15z m0 3c7 0 12 5 12 12 0 6-5 11-12 11-6 0-11-5-11-11 0-7 5-12 11-12z m57 45c0-2-2-4-4-4-2 0-3 2-3 4 0 0 0 1 1 2 0 1 1 1 2 1 2 0 4-2 4-3z m-307 44l29 50c2 4 5 5 9 5 3 0 7-2 8-5 14-29 11-61-7-88-12-17-30-30-50-37l96 0c1 0 3-2 3-4 0-3-2-5-3-5l-12 0-11-134c-2-16-15-29-31-29l-131 0c-16 0-30 13-31 29l-12 134-16 0c-1 0-3 2-3 5 0 2 2 4 3 4l91 0c-20 7-38 20-50 37-18 27-20 59-7 88 2 3 5 5 9 5 3 0 7-1 9-5l24-42c10 21 18 36 31 56 2 3 5 5 9 5 3 0 7-2 8-5 13-20 25-42 35-64z m-4-6c-10 23-22 46-36 67 0 2-2 3-3 3-2 0-3-1-4-3-14-21-22-37-32-59l40-70z m-82 7l-26 47c-1 1-3 2-4 2-2 0-3-1-4-3-12-26-10-57 7-82 15-23 42-37 70-39l0 0-40 71c-1 0-1 0-2 0-1 1-2 2-1 4 0 0 0 0 0 0z m87-11l-37-64 0 0c29 2 55 16 71 39 16 25 19 56 6 82-1 2-2 3-4 3-1 0-2-1-3-2l-31-54c0-1 0-3-2-4 0 0 0 0 0 0z m-138-74l12-134c1-13 12-23 25-23l131 0c13 0 24 10 25 23l12 134z m83-43c1-1 1-3-1-3-1-1-3-1-3 0-3 3-7 5-12 5-5 0-9-2-11-5-1-1-3-1-4 0-1 0-2 2-1 3 3 3 10 6 16 6 7 0 13-3 16-6z m38-3c0-1-2-1-3 0-2 0-2 2-1 3 3 3 9 6 16 6 6 0 13-3 16-6 1-1 0-3-1-3-1-1-3-1-4 0-2 3-6 5-11 5-5 0-9-2-12-5z m-65-46c-1 1 0 3 1 3 2 1 3 0 4-1 7-16 24-26 41-26 18 0 34 10 42 26 0 1 2 2 4 1 1 0 2-2 1-3-8-18-27-29-47-29-20 0-38 11-46 29z m213 148c0-1-1-3-3-3l-13 0c-2 0-4 2-4 3 0 2 2 4 4 4l13 0c2 0 3-2 3-4z m9-21c0 0 0-1-1-2l-7-7c0-1-1-1-2-1-1 0-2 0-2 1-1 1-1 2-1 2 0 1 0 2 1 3l6 7c1 1 2 1 3 1 1 0 2 0 2-1 1-1 1-2 1-3z m0 38c0-1 0-2-1-3-1 0-1-1-2-1-1 0-2 1-3 1l-6 7c-1 1-1 2-1 3 0 1 0 2 1 2 0 1 1 1 2 1 1 0 2 0 2-1l7-7c1 0 1-1 1-2z m16 25l0-11c0-2-2-4-4-4-1 0-3 2-3 4l0 11c0 2 2 4 3 4 2 0 4-2 4-4z m0-72l0-11c0-2-2-4-4-4-1 0-3 2-3 4l0 11c0 2 2 4 3 4 2 0 4-2 4-4z"/>
<glyph glyph-name="empty-products" unicode="&#113;" d="M434 225l-12-11c-1-2-4-2-5 0l-1 0-6-6c-1-1-3-1-5 0l-7 4c0 0-1 0-1-1 0 0 0 0 0-1l10-17c0-2 0-4-1-5-2-1-4-2-5-1l-15 8c0 0-1 0-1 0 0 0 0-1 0-1l10-14c1-2 1-4 0-5-1-2-2-2-4-2l-12 4c0 0-1 0-1-1l-18-18c-1-1-2-1-2 0-1 1-1 2 0 2l18 19c1 1 2 1 4 1l12-4c0 0 0 0 1 1 0 0 0 1 0 1l-11 14c-1 1-1 4 0 5 2 2 4 2 6 1l14-8c1 0 1 0 2 0 0 0 0 1 0 1l-10 18c-1 1-1 3 1 5 1 1 3 1 5 0l7-3c0-1 1-1 1 0l6 6-1 0c-1 2-1 4 0 6l12 11-22 21c-4 5-4 13 0 17l4 4c5 5 12 5 17 0l51-51c5-5 5-13 0-17l-3-4c-5-5-13-5-17 0z m-3 2l-4 5-11-11c-1-1-1-1 0-1l0-1c1 0 2 0 2 0 1-1 1-2 0-2l1-1c0 0 1 0 1 0z m-163 128c-2-1-3-2-5-3l-2-2c0-1-1-1-1-2 1 0 1 0 1-1 0-1 0-1-1-1 0-1 0-1 1-2l11-17c0-1 0-1 1-1 0 0 0 0 1 0l9 7 0 1z m3 0l13-18 13 18z m-4 3c0 0 0 0 0 0 1 0 1 0 2 0 0 0 1 0 2 0l26 0c1 0 2 0 3 0 0 0 1 0 1 0 0 0 1 0 1 0 2-1 4-2 5-4l2-2c1-1 2-2 2-3l10 0c3 0 7-2 9-4l22-23c2-2 2-4 1-5l-12-24c0-2-2-3-3-3-1 0-3 0-4 2l-7 7 0-75c0-3-2-5-4-5l-77 0c-3 0-5 2-5 5l0 75-7-8c-1-1-2-1-4-1-1 0-2 1-3 3l-12 24c-1 1 0 3 1 5l22 23c3 2 6 4 10 4l9 0c0 1 1 2 2 3l2 2c2 2 4 3 6 4z m19-25l9-7c0 0 0 0 1 0 0 0 1 0 1 1l11 17c0 1 0 1 0 2 0 0 0 0 0 1 0 1 0 1 0 1 0 1 0 1-1 2l-2 2c-1 1-3 2-4 3l-15-21z m0-4l0-24c0-1-1-2-2-2-1 0-1 1-1 2l0 24-7-5c-1-1-3-1-4-1-1 0-2 1-3 2l-11 18c-1 0-1 1-1 2l-9 0c-3 0-6-1-8-3l-22-23c0 0 0-1 0-1l12-24c0 0 0-1 1-1 0 0 1 0 1 1l10 10c1 1 2 0 2-1l0-79c0-1 1-2 2-2l77 0c0 0 1 1 1 2l0 79c0 1 2 2 3 1l9-10c1-1 1-1 1-1 1 0 1 1 1 1l12 24c1 0 1 1 0 1l-22 23c-2 2-5 3-7 3l-9 0c-1-1-1-2-1-2l-11-18c-1-1-2-2-4-2-1 0-2 0-3 1z m-123-41l-18 0 0-23c0-2 0-4-1-5l-14-17c-1-1-1-2-1-3l0-78c0-3 2-6 5-6l40 0c3 0 5 3 5 6l0 78c0 1 0 2-1 3l-14 17c-1 1-1 3-1 5z m0 3l0 12c0 3-3 5-6 5l-6 0c-3 0-6-2-6-5l0-12z m8-138l-37 0c-5 0-9 4-9 9l0 78c0 1 1 2 1 3 0 1 1 2 1 2l14 17c1 1 1 2 1 3l0 38c0 5 4 8 9 8l6 0c5 0 9-3 9-8l0-38c0-1 0-2 1-3l14-17c0 0 1-1 1-2 0-1 1-2 1-3l0-78c0-5-4-9-9-9z m235 117c-4-3-4-9 0-12l51-52c3-3 9-3 12 0l4 4c3 3 3 9 0 12l-51 52c-4 3-9 3-13 0z m-396-84l0 8 97 0 0-8z m194 0l0 8 158 0 0-8z m221 0l0 8 77 0 0-8z"/>
<glyph glyph-name="empty-reviews" unicode="&#114;" d="M108 316c0-1 0-2-1-2l-7-6c-1 0-1-1-1-1l3-9c1-1 0-2 0-3-1 0-2 0-3 0l-7 6c-1 0-1 0-1 0l-8-6c-1 0-2 0-2 0-1 1-1 2-1 3l3 9c0 0 0 1 0 1l-8 6c0 0-1 1 0 2 0 1 1 2 2 2l8 0c1 0 1 0 1 0l3 9 0 0c0 1 1 1 2 1 1 0 2 0 2-1l3-9c0 0 1 0 1 0l9 0c0 0 1-1 2-2z m41 0c0-1 0-2-1-2l-7-6c-1 0-1-1-1-1l3-9c1-1 0-2 0-3-1 0-2 0-3 0l-7 6c-1 0-1 0-1 0l-8-6c-1 0-2 0-2 0-1 1-1 2-1 3l3 9c0 0 0 1 0 1l-8 6c0 0-1 1 0 2 0 1 1 2 2 2l8 0c1 0 1 0 1 0l3 9 0 0c0 1 1 1 2 1 1 0 2 0 2-1l3-9c0 0 1 0 1 0l9 0c0 0 1-1 2-2z m41 0c0-1 0-2-1-2l-7-6c-1 0-1-1-1-1l3-9c1-1 0-2 0-3-1 0-2 0-3 0l-7 6c-1 0-1 0-1 0l-8-6c-1 0-2 0-2 0-1 1-2 2-1 3l3 9c0 0 0 1 0 1l-8 6c0 0-1 1 0 2 0 1 1 2 2 2l8 0c1 0 1 0 1 0l3 9 0 0c0 1 1 1 2 1 1 0 2 0 2-1l3-9c0 0 1 0 1 0l9 0c0 0 1-1 2-2z m37 0c0-1 0-2-1-2l-7-6c0 0 0-1 0-1l3-9c0-1 0-2-1-3-1 0-2 0-2 0l-8 6c0 0-1 0-1 0l-7-6c-1 0-2 0-3 0-1 1-1 2-1 3l3 9c1 0 0 1 0 1l-7 6c-1 0-1 1-1 2 0 1 1 2 2 2l9 0c0 0 0 0 1 0l3 9 0 0c0 1 1 1 2 1 1 0 1 0 2-1l3-9c0 0 0 0 0 0l9 0c1 0 2-1 2-2z m92-3c0 51-42 93-94 93l-101 0c-51 0-93-42-93-93 0-52 42-93 93-93l19 0c1 0 2-1 2-2l0-47 48 48c0 0 0 1 1 1l31 0c52 0 94 41 94 93z m-178-97l-17 0c-53 0-97 43-97 97 0 53 44 97 97 97l101 0c54-1 97-44 97-97l0 0c0-54-43-97-97-97l-30 0-51-50c-1-1-3 0-3 1z m216 49c-34 0-62-28-62-63 0-34 28-62 62-62l22 0c0 0 1 0 1 0l31-32 0 30c0 1 1 2 2 2l13 0c34 0 62 28 62 62 0 35-28 63-62 63z m58-128l0-33c0-1-2-2-3-1l-34 34-21 0c-36 0-65 29-65 65 0 37 29 66 65 66l69 0c36 0 65-29 65-66 0-36-29-65-65-65z m-146 179c0-1 0-2-1-2l-8-7 4-10c0-1 0-2-1-2-1-1-2-1-3 0l-8 6-8-6c-1-1-2-1-3 0-1 0-1 1-1 2l4 10-8 7c-1 0-1 1-1 2 0 1 1 2 2 2l9 0 4 9c0 1 1 2 2 2 1 0 2-1 2-2l3-9 10 0c1 0 2-1 2-2z m-12-7l7 5c0 0 0 0 0 0 0 1-1 1-1 1l-7 0c0 0-1 0-1 1l-3 7c0 0 0 0 0 0 0 0 0 0 0 0l-3-7c0-1-1-1-1-1l-7 0c-1 0-1 0-1-1 0 0 0 0 0 0l6-5c1-1 1-1 1-2l-3-7c0 0 0 0 1 0 0-1 0-1 0 0l6 4c1 0 1 0 2 0l6-5c0 0 0 0 0 0 0 1 0 1 0 1l-2 7c0 1 0 1 0 2z m85-109c-3 0-5 1-5 2 0 1 2 2 5 2l103 0c2 0 5-1 5-2 0-1-3-2-5-2z m0 19c-3 0-5 1-5 2 0 1 2 2 5 2l103 0c2 0 5-1 5-2 0-1-3-2-5-2z m0-38c-3 0-5 1-5 2 0 1 2 2 5 2l103 0c2 0 5-1 5-2 0-1-3-2-5-2z"/>
<glyph glyph-name="empty-shopping-bag-sad" unicode="&#115;" d="M152 371l-60 0c-10 0-18-8-18-17l-20-284c0-7-1-14-1-21 0-21 17-38 39-38l327 0c21 0 38 17 38 38 0 7 0 14-1 21l-19 284c-1 9-9 17-18 17l-60 0 0-61c0-2-3-5-6-5-3 0-5 3-5 5l0 61-186 0 0-61c0-2-2-5-5-5-3 0-5 3-5 5z m0 10l0 28c0 57 46 103 103 103 57 0 104-46 104-103l0-28 60 0c15 0 27-11 28-27l20-283c0-7 1-15 0-22 0-27-21-49-48-49l-327 0c-27 0-49 22-49 49 0 7 0 15 0 22l20 283c1 16 14 27 29 27z m196 0l0 28c0 51-42 92-93 92-51 0-93-41-93-92l0-28z m-149-167c6 0 11-5 11-11 0-6-5-10-11-10-6 0-11 4-11 10 0 6 5 11 11 11z m105 0c6 0 11-5 11-11 0-6-5-10-11-10-6 0-11 4-11 10 0 6 5 11 11 11z m-107-103c-1-2-3-2-5-1-2 1-2 3-1 5 14 21 37 34 63 34 25 0 48-13 62-34 2-2 1-4-1-5-1-1-4-1-5 1-13 19-34 30-56 30-23 0-44-11-57-30z"/>
<glyph glyph-name="empty-variants" unicode="&#116;" d="M100 308l-19 24c0 0 0 0 0 1-2-1-3-2-4-3l-3-2c-1-2-2-5 0-8l12-20c0 0 1 0 1-1 1 0 1 1 2 1l11 8c0 0 0 0 0 0z m-17 25c0 0 0 0 0 0l19-23 18 23c-1 0-3 1-5 1l-29 0c-1 0-2 0-3-1z m21-27l8-6c0 0 1-1 2-1 0 1 1 1 1 1l12 20c2 3 1 6-1 8l-2 2c-1 0-1 1-2 1l-19-23 1-1c0 0 0-1 0-1z m-1-3l0-31c0-1-1-2-1-2-1 0-2 1-2 2l0 33c0 0 0 0 0 0l-10-7c-1-1-2-1-3-1-2 0-3 1-3 2l-13 20c0 1-1 3-1 4l-12 0c-3 0-6-1-9-4l-26-26c0-1 0-2 0-3l14-28c0 0 1-1 1-1 1 0 2 0 2 1l11 12c1 1 3 0 3-1l0-93c0-1 1-2 2-2l89 0c1 0 2 1 2 2l0 93c0 1 2 2 2 1l12-12c0-1 1-1 1-1 1 0 2 1 2 1l14 28c0 1 0 2-1 3l-25 26c-3 3-6 4-9 4l-12 0c0-1-1-3-2-4l-12-20c-1-1-2-2-3-2-1 0-3 0-4 1z m-33 23c1 1 1 2 2 3l3 3c3 3 7 4 11 4l29 0c4 0 8-1 11-4l2-3c1-1 2-2 2-3l13 0c4 0 8-2 10-5l26-26c2-2 2-4 1-6l-14-28c0-1-2-2-3-2-2-1-3 0-4 1l-9 10 0-90c0-2-2-4-5-4l-89 0c-3 0-5 2-5 4l0 90-9-10c-1-1-2-2-4-1-1 0-3 1-3 2l-14 28c-1 2-1 4 0 6l26 26c3 3 7 5 11 5z m377-4c0 0 1 0 1 0 0 0 0 0 1 0 0 0 0 0 0 0l-1-1-1 1c0 0 1 0 1 0 0 0 0 0 1 0 0 0 0 0 0 0l8 11c1 0 1 0 1 0-1 1-1 1-2 1l-16 0c-1 0-1 0-2-1 0 0 0 0 0 0z m-2-1l-9 11c0 0 0 0 0 1 0-1 0-1-1-1l-1-1c0 0 0-1 0-1 0 0 0 0 0 0 0-1 0-1 0-1 0 0 0-1 0-1l7-10c0 0 0 0 0 0 0 0 0 0 0 0z m4-3l0-17c0-1 0-2-1-2-1 0-1 1-1 2l0 17-4-2c-1-1-2-1-3-1 0 0-1 1-2 2l-6 10c-1 0-1 1-1 1l-6 0c-1 0-3 0-4-1l-14-15c0 0 0 0 0 0l8-15c0 0 0 0 0-1 0 0 0 1 0 1l6 6c1 1 3 0 3-1l0-49c0-1 0-1 0-1l48 0c0 0 0 0 0 1l0 49c0 1 2 2 3 1l5-6c1 0 1-1 1-1 0 1 0 1 0 1l8 15c0 0 0 0 0 0l-14 15c-1 1-3 1-4 1l-6 0c0 0 0-1-1-1l-6-10c-1-1-2-2-2-2-1 0-2 0-3 1z m2 3l4-3c0 0 0 0 0 0 0 0 0 0 0 0l7 10c0 0 0 1 0 1 0 0 0 0 0 1 0 0 0 0 0 0 0 0 0 1 0 1l-2 1c0 0 0 0 0 1 0-1 0-1 0-1z m-20 10c0 1 1 1 1 2l2 1c1 1 4 2 6 2l16 0c2 0 5-1 6-2l2-1c0-1 0-1 1-2l6 0c2 0 4-1 6-3l14-14c0-1 1-2 0-4l-7-14c-1-1-2-2-3-2-1 0-2 0-2 1l-4 4 0-46c0-2-1-4-3-4l-48 0c-2 0-3 2-3 4l0 46-4-4c0-1-1-1-2-1-1 0-2 1-3 2l-7 14c-1 2-1 3 0 4l14 14c2 2 4 3 6 3z m-144-18l-6-5c-1 0-2 0-3 0-1 0-2 1-2 2l-10 14c0 0-1 1-1 2l-8 0c-2 0-5-1-6-2l-20-21c0 0 0-1 0-1l10-21c1 0 1-1 1-1 1 0 1 0 1 1l9 9c0 1 2 0 2-1l0-70c0-1 0-1 1-1l67 0c1 0 1 0 1 1l0 70c0 1 2 2 3 1l8-9c0-1 1-1 1-1 0 0 1 1 1 1l10 21c1 0 1 1 0 1l-19 21c-2 1-4 2-7 2l-8 0c0-1 0-2-1-2l-9-14c-1-1-2-2-3-2-1 0-2 0-3 0l-6 5 0-1 0-25c0-1-1-1-1-1-1 0-2 0-2 1l0 25z m1 3l0 0c0 1 0 1 1 1 0 0 0 0 0 0 0-1 0-1 0-1l0 0c1 0 1 0 1 0l-1-1-1 1c0 0 0 0 0 0l0 0c0 1 0 1 1 1 0 0 0 0 0 0 0-1 0-1 0-1l1 0 12 16c1 1 2 1 2 0 1 0 1-1 1-2l-13-15 6-4c0-1 0-1 1-1 0 0 0 1 1 1l9 14c0 1 1 1 1 2-1 0-1 0-1 1 0 0 0 0 0 0 0 1 0 1-1 1l-1 2c-2 2-4 3-7 3l-23 0c-2 0-5-1-6-3l-2-2c0 0-1 0-1-1 0 0 0 0 0 0 0-1 0-1 0-1 0-1 0-1 0-2l10-14c0 0 0-1 1-1 0 0 0 0 1 1l5 4-12 15c-1 1-1 2 0 2 1 1 1 1 2 0z m-23 13c1 1 1 2 2 2l2 2c2 2 5 3 8 3l23 0c3 0 6-1 8-3l2-2c1 0 2-1 2-2l8 0c4 0 7-1 9-4l19-20c1-1 2-3 1-4l-11-21c0-1-1-2-2-2-2 0-3 0-4 1l-6 6 0-66c0-2-2-4-4-4l-67 0c-2 0-4 2-4 4l0 66-6-6c-1-1-2-1-3-1-1 0-2 1-3 2l-10 21c-1 1-1 3 0 4l20 20c2 3 5 4 8 4z m-48-70l-30-10c-1 0-1 0-2 1 0 1 0 1 1 2l30 10-7 3c0 1-1 1 0 2 0 1 1 1 1 1l10-5c1 0 1-1 1-2l-5-10c0 0-1-1-2 0 0 0-1 1 0 2z m174 14l-30-11c-1 0-2 0-2 1 0 1 0 1 1 2l30 10-7 3c-1 1-1 2 0 2 0 1 1 1 1 1l10-5c1 0 1-1 1-2l-5-9c0-1-1-1-2-1-1 0-1 1 0 2z"/>
<glyph glyph-name="empty-vintage-notes" unicode="&#117;" d="M108 86l-35 0c-12 0-22 10-22 22l0 296c0 12 10 22 22 22l227 0c12 0 22-10 22-22l0-296c0-12-10-22-22-22z m-4 9l0 322-31 0c-7 0-13-6-13-13l0-296c0-8 6-13 13-13z m287 252l0-218 61 0 0 218z m2 9l58 0-29 86z m68-4l0 0 0-262c0-22-17-39-39-39-22 0-39 17-39 39l0 35c-1 0-1 0-1 0 0 0 0 0 1 0l0 226c-1 0-1 1-1 1 0 0 1 1 1 2l35 104c1 4 7 4 8 0l35-105 0 0c0 0 0-1 0-1z m-70-231l0-31c0-17 14-30 31-30 17 0 30 13 30 30l0 31z m-91-26c7 0 13 5 13 13l0 296c0 7-6 13-13 13l-188 0 0-322z m-135 191l95 0 0 44-95 0z m-5 53l105 0c2 0 4-2 4-5l0-52c0-2-2-4-4-4l-105 0c-2 0-4 2-4 4l0 52c0 3 2 5 4 5z"/>
<glyph glyph-name="empty-wine-appellation" unicode="&#118;" d="M480 209c-6-6-14-6-19 0-6 5-6 14 0 19 5 5 14 5 19 0 5-6 5-14 0-19z m-15 15c-4-3-4-8-1-11 4-4 9-4 12-1 3 4 3 9 0 12-3 3-8 3-11 0z m-27 27c-5-6-14-5-19 0-5 5-5 14 0 19 6 5 14 5 20 0 5-6 5-14-1-19z m-15 15c-3-3-3-8 0-11 3-4 8-4 11 0 4 3 4 8 1 11-3 3-9 3-12 0z m40 6c-6-5-14-5-20 0-5 6-5 14 1 20 5 5 14 5 19-1 5-5 5-14 0-19z m-15 16c-4-3-4-9-1-12 4-3 9-3 12 0 3 3 3 8 0 11-3 4-8 4-11 1z m-33-61c-6-5-14-5-19 1-6 5-5 14 0 19 5 5 14 5 19 0 5-6 5-15 0-20z m-15 16c-4-3-4-8 0-12 3-3 8-3 11 0 3 3 3 8 0 12-3 3-8 3-11 0z m50-28c-5-5-14-5-19 1-6 5-5 14 0 19 5 5 14 5 19 0 6-6 5-14 0-20z m-15 16c-3-3-4-8 0-11 3-4 8-4 11-1 3 4 4 9 0 12-3 3-8 3-11 0z m38 8c-5-5-14-5-19 0-5 6-5 14 0 19 6 6 14 5 20 0 5-5 5-14-1-19z m-15 16c-3-4-3-9 0-12 3-3 8-3 12 0 3 3 3 8 0 11-3 4-9 4-12 1z m-42 20c-1-1-2-1-3 0l-24 24c-1 1-1 3 0 4 1 1 3 0 4-1l23-24c1-1 1-2 0-3z m-14-15c-12-11-30-14-44-5-2 0-3 2-3 3 0 1 0 3 1 4 0 0 0 0 0 0 1 2 3 4 5 6 12 11 30 14 44 5 3-1 3-4 2-7 0 0 0 0 0 0-2-2-3-4-5-6z m-38 4c-1-2-2-3-4-5 13-7 28-5 38 5 2 2 3 3 4 5-12 7-27 5-38-5z m66 23c-1-2-3-3-5-5 0 0-1 0-1 0-2-1-6 0-7 2-8 15-5 33 7 45 2 1 4 3 6 4 0 0 0 0 0 0 3 2 6 1 7-2 8-15 5-32-7-44z m-2 38c-10-10-13-26-6-38 1 1 3 2 4 4 11 10 13 25 7 37-2-1-4-2-5-3z m-192-154l-177 0c-2 0-4 1-4 3 0 1 2 2 4 2l177 0c2 0 3-1 3-2 0-2-1-3-3-3z m226 0l-153 0c-2 0-4 1-4 3 0 1 2 2 4 2l153 0c2 0 4-1 4-2 0-2-2-3-4-3z m-397 48c0 0 0 0 0 0-1 0-2 1-2 2-1 0-3 6-8 13-2-4-4-5-7-6-1 0-1 0-2 0-4 0-8 2-11 6 0 0 0 0-1 0-6 9-8 21-4 32 0 1 1 1 2 2 0 0 0 0 0 0 1 0 1 0 2-1 4-3 8-4 12-5 3-1 7-2 11-4 4-3 6-7 6-11 0-2-1-6-5-9 3-3 5-7 6-10 2 7 5 14 9 20-5 3-8 7-9 10-1 5 1 11 6 16 4 6 10 8 17 9 5 2 11 4 16 8 0 1 1 1 1 1 0 0 0 0 1 0 0 0 1-1 1-1 7-13 4-36-3-45-3-3-9-9-15-9-1 0-1 0-2 0-4 1-7 3-10 8-4-8-7-16-9-24 0-1-1-2-2-2z m-13 19c-3 4-7 7-10 8-1 1-2 3-1 4 0 1 1 1 2 1 0 0 1 0 1 0 4-2 7-5 11-9 1 1 3 3 3 5 0 3-2 5-5 7-3 2-6 3-9 4-3 1-7 2-11 4-1-8 0-18 5-25 2-3 5-4 8-4 0 0 0 0 1 0 2 0 3 2 5 5z m51 47c-5-4-10-5-15-7-6-1-11-3-14-7-3-3-6-8-5-12 1-2 3-5 7-7 4 8 10 15 17 21 0 1 1 1 2 1 0 0 1 0 1-1 1-1 1-2 0-3-6-6-12-13-17-20 3-5 5-8 8-8 0 0 1 0 1 0 4 0 9 4 11 7 6 7 8 25 4 36z m103 18c0 0 0 0 0 0l7 53c0 4 3 6 7 6l97 0c3 0 6-2 7-6l9-68c0-35-28-64-62-65l0-81 26 0c1 0 2-1 2-3 0-1-1-2-2-2l-58 0c-1 0-2 1-2 2 0 2 1 3 2 3l27 0 0 81c-35 1-62 30-62 65l0 0z m121-3l-117 0-2-12c0-33 27-60 60-60 33 0 60 27 60 60z m-1 5l-7 50c0 2-1 2-2 2l-97 0c-2 0-3 0-3-2l-6-50z m-214-82c3-5 5-9 8-13 0 0 0 0 1 0 0 0 0 0 0 0 28 45 51 87 51 107 0 28-23 52-51 52-29 0-52-24-52-52 1-7 3-14 5-21 1-1 0-3-1-3-1-1-3 0-3 1-3 7-5 15-6 23 0 31 26 57 57 57 31 0 56-26 56-57 0-12-8-32-22-58-9-18-19-36-29-51-1-2-3-3-5-3-3 0-4 1-6 3-2 3-5 8-7 12-1 1-1 3 1 4 1 0 2 0 3-1z m9 69c-15 0-26 11-26 25 0 15 11 26 26 26 14 0 25-11 25-26 0-14-11-25-25-25z m0 5c11 0 20 9 20 20 0 12-9 21-20 21-12 0-21-9-21-21 0-11 9-20 21-20z"/>
<glyph glyph-name="empty-wine-bottles" unicode="&#119;" d="M99 407l-45 0 0-62c0-5-2-10-6-14l-36-44c-3-3-4-6-4-9l0-211c0-7 7-14 14-14l100 0c2 0 4-2 4-4 0-2-2-4-4-4l-100 0c-12 0-22 10-22 22l0 211c0 5 2 10 5 14l37 44c2 3 3 6 3 9l0 102c0 12 10 22 22 22l19 0c12 0 22-10 22-22l0-102c0-3 1-6 3-9l37-44c3-4 5-9 5-14 0-3-2-4-4-4-2 0-4 1-4 4 0 3-1 6-4 9l-36 44c-4 4-6 9-6 14z m0 8l0 32c0 8-6 14-13 14l-19 0c-7 0-13-6-13-14l0-32z m176-8l-46 0 0 8 46 0 0 32c0 8-6 14-14 14l-18 0c-8 0-14-6-14-14l0-102c0-5-2-10-5-14l-37-44c-2-3-3-6-3-9l0-211c0-7 6-14 14-14l99 0c2 0 4-2 4-4 0-2-2-4-4-4l-99 0c-13 0-23 10-23 22l0 211c0 5 2 10 5 14l37 44c2 3 4 6 4 9l0 102c0 12 9 22 22 22l18 0c12 0 22-10 22-22l0-102c0-3 1-6 3-9l37-44c4-4 5-9 5-14 0-3-2-4-4-4-2 0-4 1-4 4 0 3-1 6-3 9l-37 44c-3 4-5 9-5 14z m183 0l-45 0 0-62c0-5-2-10-6-14l-36-44c-3-3-4-6-4-9l0-211c0-7 7-14 14-14l109 0c7 0 14 7 14 14l0 211c0 3-1 6-4 9l-36 44c-4 4-6 9-6 14z m0 8l0 32c0 8-6 14-13 14l-19 0c-7 0-13-6-13-14l0-32z m23-370l-100 0c-12 0-22 10-22 22l0 211c0 2 0 5 1 7 1 3 2 5 4 7l37 44c2 3 3 6 3 9l0 102c0 12 10 22 22 22l19 0c12 0 22-10 22-22l0-102c0-3 1-6 3-9l37-44c2-2 3-4 4-7 1-2 1-5 1-7l0-211c0-12-10-22-22-22z"/>
<glyph glyph-name="empty-wine-categories" unicode="&#120;" d="M451 126c-2 0-3 1-3 3 0 1 1 2 3 2l13 0 0 42c-20 2-34 17-34 37 0 0 0 0 0 0l5 37c0 3 2 5 5 5l53 0c2 0 5-2 5-5l5-37c0 0 0 0 0 0 0-20-15-35-34-37l0-42 13 0c1 0 3-1 3-2 0-2-2-3-3-3z m-16 84c0-18 14-32 31-32 18 0 32 14 32 32l-1 5-61 0z m61 10l-3 26-53 0-4-26z m-114 55l-18 0 0-27c0-3-1-5-3-7l-15-19c-1-1-2-2-2-3l0-90c0-2 3-5 6-5l46 0c3 0 5 3 5 5l0 90c0 1 0 2-1 3l-16 19c-1 2-2 4-2 7z m0 5l0 11c0 3-3 5-5 5l-8 0c-3 0-5-2-5-5l0-11z m10-161l-42 0c-6 0-10 5-10 10l0 90c0 1 0 2 0 3 1 1 1 2 2 3l16 19c0 1 1 2 1 4l0 43c0 5 4 10 10 10l8 0c5 0 10-5 10-10l0-43c0-2 0-3 1-4l15-19c1-1 2-2 2-3 0-1 1-2 1-3l0-90c0-5-5-10-10-10z m-278 190c0 0 0 0-1 0l-9 0 9-42c0-3 3-5 6-5l68 0c3 0 5 2 5 5l10 42-10 0c0 0 0 0 0 0z m-2 5l16 32c0 1 2 1 3 1 1-1 2-2 1-3l-14-30 70 0-15 30c-1 1 0 2 1 3 1 0 3 0 3-1l16-32 12 0c1 0 3-1 2-3l-10-45c0-5-5-9-10-9l-68 0c-5 0-10 4-11 9l-10 45c0 2 1 3 3 3z m18-135l-108 0c-8 0-15 8-15 16l0 182c0 9 7 16 15 16l261 0c9 0 15-7 15-16l0-182c1-8-6-16-15-16l-108 0c2-17 8-33 18-47l25 0c1 0 2-1 2-3 0-1-1-2-2-2l-131 0c-1 0-2 1-2 2 0 2 1 3 2 3l25 0c10 14 17 30 18 47z m3 5c0 0 0 0 0 0l39 0c0 0 0 0 0 0l111 0c6 0 11 5 11 11l0 23-282 0 0-23c0-6 4-11 10-11z m-121 39l282 0 0 154c0 6-5 11-11 11l-261 0c-6 0-10-5-10-11z m106-91l69 0c-9 14-15 30-17 47l-35 0c-1-17-7-33-17-47z"/>
<glyph glyph-name="empty-wine-region" unicode="&#121;" d="M380 203c-24 0-43 19-43 43 0 23 19 42 43 42 23 0 42-19 42-42 0-24-19-43-42-43z m0 75c-18 0-32-15-32-32 0-18 14-32 32-32 17 0 32 14 32 32 0 17-15 32-32 32z m0-188c-2 0-4 0-6 1-1 1-3 2-3 4-17 25-70 111-70 147 0 21 8 40 23 55 15 15 35 23 56 23 43 0 78-35 78-78 0-36-53-122-69-147-2-3-4-4-7-5-1 0-2 0-2 0z m0 220c-38-1-68-31-68-68 0-33 52-117 68-142 15 25 67 109 67 142 0 37-30 67-67 68l0 2z m0-246c-29 0-60 2-82 6-31 4-46 11-46 21 0 12 24 20 73 24 0 0 1 0 1 0 3 0 5-2 5-5 0-1 0-2-1-3-1-1-2-2-4-2-48-4-62-12-64-14 3-5 42-16 118-16 74 0 113 11 117 16-2 2-17 10-65 14-1 0-2 1-3 2-1 1-2 2-1 4 0 2 2 4 5 4 0 0 0 0 0 0 50-4 75-12 75-24 0-10-16-17-46-21-23-4-54-6-82-6z m-376 292c0 0 0 0 0 0l13 102c1 6 7 11 14 11l183 0c7 0 13-5 14-11l17-129c0-67-52-120-118-123l0-154 50 0c2 0 4-2 4-5 0-2-2-4-4-4l-109 0c-2 0-4 2-4 4 0 3 2 5 4 5l50 0 0 154c-66 3-118 56-118 123l0 0z m229-5l-221 0-3-23c0-62 51-113 114-113 62 0 113 51 113 113z m-1 9l-13 96c0 3-2 4-5 4l-183 0c-3 0-5-1-5-4l-13-96z"/>
<glyph glyph-name="empty-wine-type" unicode="&#122;" d="M396 47c-72 0-84 40-85 41-2 8-3 15-5 23 0 1 0 2 0 4-2 10-3 20-4 31-3 39 0 78 9 115 1 24 37 42 85 42 47 0 83-18 84-42 9-37 12-76 9-115-1-11-2-21-4-31 1-2 0-3 0-4-2-8-3-15-5-23 0-1-12-41-84-41z m-76 51c0-3 1-5 1-7 0 0 12-33 75-33 33 0 51 9 61 16 10 9 13 17 13 17 0 2 1 5 1 7-17-12-46-19-75-19-30 0-59 7-76 19z m-4 17c11-14 44-25 80-25 35 0 68 11 79 25 1 5 1 11 2 16-17-12-47-20-81-20-35 0-65 8-82 20 1-5 1-11 2-16z m-4 33c9-15 44-26 84-26 39 0 74 11 83 26 1 9 1 19 1 29-17-14-50-23-84-23-35 0-68 9-85 23 0-10 1-20 1-29z m0 44c8-14 41-28 84-28 32 0 73 11 84 28-1 6-1 12-2 19-17-15-49-25-82-25-33 0-66 10-83 25-1-7-1-13-1-19z m3 33c9-14 42-29 81-29 38 0 71 15 80 29 0 6-2 12-3 18-13-15-43-25-77-25-35 0-65 10-78 25-1-6-2-12-3-18z m81 67c-40 0-74-15-74-32 0-17 34-32 74-32 39 0 74 15 74 32 0 17-35 32-74 32z m-32-48c-12 0-21 7-21 16 0 9 9 16 21 16 12 0 21-7 21-16 0-9-9-16-21-16z m0 22c-6 0-11-3-11-6 0-2 5-5 11-5 6 0 10 3 10 5 0 3-4 6-10 6z m-343 90c0 0 0 0 0 0l13 102c1 6 7 11 14 11l183 0c7 0 13-5 14-11l17-129c0-67-52-120-118-123l0-154 50 0c3 0 5-2 5-5 0-2-2-4-5-4l-109 0c-2 0-4 2-4 4 0 3 2 5 4 5l50 0 0 154c-65 3-118 56-118 123l0 0z m229-5l-221 0-3-23c0-62 51-113 114-113 62 0 113 51 113 113z m-1 9l-13 96c0 3-2 4-4 4l-184 0c-3 0-5-1-5-4l-13-96z"/>
<glyph glyph-name="globe-lock" unicode="&#65;" d="M341 171l0 21c0 36 29 64 64 64 36 0 64-28 64-64l0-21 11 0c18 0 32-15 32-32l0-107c0-18-14-32-32-32l-150 0c-17 0-32 14-32 32l0 107c0 17 15 32 32 32z m22 0l85 0 0 21c0 24-19 43-43 43-23 0-42-19-42-43z m41 267c-9 8-20 15-31 21-85 50-192 40-268-23-40-34-66-78-77-126l116 0c20 0 39-8 53-22l24-24c28-28 29-73 3-103l-30-32c-8-10-13-23-13-36l0-59c24-8 49-13 75-13 3 0 6 0 10 1 6 0 11-5 11-11 0-6-5-11-11-11-3 0-7 0-10 0-31 0-60 5-88 15-1 1-2 1-3 2-68 26-124 80-150 152-15 42-19 86-12 128 0 1 0 1 0 2 0 2 1 4 2 5 10 57 40 109 87 148 82 69 199 80 292 26 20-12 38-26 54-42 1-1 2-2 3-3 55-58 81-140 67-221-1-6-6-10-12-9-6 1-10 7-9 12 13 74-10 148-60 201l-119 0c-20 0-37-16-37-37 0-21 17-37 37-37l10 0c25 0 48-13 62-34l13-19c3-5 2-12-3-15-5-3-12-2-15 3l-13 20c-10 14-27 23-44 23l-10 0c-32 0-58 27-58 59 0 32 26 59 58 59z m-380-150c-6-37-2-75 11-112 23-61 68-108 125-134l0 51c0 18 6 36 19 50l29 32c18 22 17 54-3 74l-23 24c-10 10-24 15-38 15z m306-139c-5 0-10-4-10-10l0-107c0-6 5-11 10-11l150 0c6 0 11 5 11 11l0 107c0 6-5 10-11 10z m75-32c18 0 32-14 32-32 0-17-14-32-32-32-17 0-32 15-32 32 0 18 15 32 32 32z m0-21c-6 0-10-5-10-11 0-5 4-10 10-10 6 0 11 5 11 10 0 6-5 11-11 11z"/>
<glyph glyph-name="inventory" unicode="&#67;" d="M33 21c-18 0-33 15-33 34l0 179c0 19 15 34 33 34l78 0 0 168c0 18 15 33 34 33l200 0c18 0 33-15 33-33l0-168 101 0c18 0 33-15 33-34l0-179c0-19-15-34-33-34z m446 23c6 0 11 5 11 11l0 179c0 6-5 11-11 11l-34 0 0-77c0-5-2-10-5-14-4-5-10-9-17-9-5 0-10 2-14 5l-31 25-30-25c-4-3-9-5-14-5-12 0-22 10-22 23l0 77-45 0 0-201z m-446 201c-6 0-11-5-11-11l0-179c0-6 5-11 11-11l212 0 0 201-45 0 0-77c0-5-1-10-5-14-4-5-10-9-17-9-5 0-10 2-14 5l-30 25-31-25c-4-3-9-5-14-5-6 0-11 3-16 7-4 4-6 10-6 16l0 77z m301-77l37 30c2 2 5 3 7 3 3 0 5-1 7-3l38-30 0 77-89 0z m-245 0l38 30c2 2 4 3 7 3 2 0 5-1 7-3l37-30 0 77-89 0z m267 100l0 168c0 6-5 11-11 11l-33 0 0-78c0-5-2-10-5-14-4-4-9-7-15-8-1 0-2 0-3 0-5 0-9 2-13 5l-31 25-31-25c-4-3-9-5-14-5-6 0-11 2-15 7-5 4-7 9-7 15l0 78-33 0c-6 0-11-5-11-11l0-168z m-156 101l38 31c2 1 4 2 7 2 2 0 5-1 7-2l37-31 0 78-89 0z"/>
<glyph glyph-name="move" unicode="&#68;" d="M508 264c2-1 3-3 3-4 1-1 1-3 1-5 0-1 0-2-1-4 0-1-1-3-3-4l-4-4c0 0 0 0 0 0l-64-58c-2-2-5-3-8-3-3 0-6 1-9 3l-3 4c-2 3-3 5-2 9 0 3 1 5 4 7l38 35-186 0 0-187 34 38c2 3 5 4 8 4 3 1 6 0 8-2l4-3c2-3 4-6 4-9 0-3-2-6-4-8l-59-65c0 0 0 0 0 0 0 0 0 0 0 0l-4-4c-1-2-3-3-4-3-1-1-3-1-4-1-2 0-3 0-5 1-1 0-3 1-4 3l-4 4c0 0 0 0 0 0l-58 64c-2 2-3 5-3 8 0 3 1 6 3 9l4 3c3 2 5 3 9 2 3 0 5-1 7-4l35-38 0 188-190 0 39-35c3-2 4-4 4-7 1-4 0-6-2-9l-3-4c-3-2-6-3-9-3-3 0-6 1-8 3l-64 58c0 0 0 0 0 0l-4 4c-2 1-3 3-3 4-1 2-1 3-1 4 0 2 0 4 1 5 0 1 1 3 3 4l0 1c1 1 2 2 3 3 1 1 2 2 4 3l62 56c2 2 5 4 8 4 4 0 6-2 9-4l3-4c2-2 3-5 2-8 0-3-1-6-4-8l-38-34 188 0 0 187-35-38c-2-3-4-4-7-4-4-1-6 0-9 2l-4 3c-2 3-3 6-3 9 0 3 1 6 3 8l58 64c0 0 0 0 0 0l4 4c1 2 3 3 4 3 2 1 3 1 5 1 1 0 3 0 4-1 1 0 3-1 4-3l1 0c1-1 2-2 3-3 1-1 2-2 3-4l56-62c2-2 4-5 4-8 0-4-2-6-4-9l-4-3c-2-2-5-3-8-2-3 0-6 1-8 4l-35 38 0-187 186 0-38 35c-3 2-4 5-4 8-1 3 0 6 2 8l3 4c3 2 6 4 9 4 3 0 6-2 8-4l65-59c0 0 0 0 0 0 0 0 0 0 0 0z"/>
<glyph glyph-name="note" unicode="&#69;" d="M48 0c-27 1-49 24-48 51l0 347c-1 26 20 49 47 50l49 0 0 48c0 9 7 16 16 16 9 0 16-7 16-16l0-48 64 0 0 48c0 9 7 16 16 16 9 0 16-7 16-16l0-48 64 0 0 48c0 9 7 16 16 16 9 0 16-7 16-16l0-48 64 0 0 48c0 9 7 16 16 16 9 0 16-7 16-16l0-48 48 0c27-1 49-24 48-51l0-347c1-26-21-49-47-50l-417 0c0 0 0 0 0 0z m0 416c-9 0-16-8-16-18l0-348c0-10 7-18 17-18l415 0c9 0 16 8 16 18l0 348c0 10-7 18-17 18l-47 0 0-16c0-9-7-16-16-16-9 0-16 7-16 16l0 16-64 0 0-16c0-9-7-16-16-16-9 0-16 7-16 16l0 16-64 0 0-16c0-9-7-16-16-16-9 0-16 7-16 16l0 16-64 0 0-16c0-9-7-16-16-16-9 0-16 7-16 16l0 16z m96-128c-9 0-16 7-16 16 0 9 7 16 16 16l224 0c9 0 16-7 16-16 0-9-7-16-16-16z m0-96c-9 0-16 7-16 16 0 9 7 16 16 16l224 0c9 0 16-7 16-16 0-9-7-16-16-16z m0-96c-9 0-16 7-16 16 0 9 7 16 16 16l112 0c9 0 16-7 16-16 0-9-7-16-16-16z"/>
<glyph glyph-name="page" unicode="&#70;" d="M320 466c-2 2-5 3-8 3l-217 0c-6 0-11-4-11-10l0-406c0-6 5-10 11-10l312 0c5 0 10 4 10 10l0 309c0 3-1 5-3 7z m5 46c6 0 11-2 15-6l113-116c3-4 6-9 6-15l0-332c0-24-19-43-42-43l-333 0c-23 0-41 19-41 43l0 426c0 24 18 43 41 43z m9-235l-187 0c-12 0-21 10-21 22 0 11 9 21 21 21l187 0c11 0 21-10 21-21 0-12-10-22-21-22z m0-85l-187 0c-12 0-21 10-21 21 0 12 9 22 21 22l187 0c11 0 21-10 21-22 0-11-10-21-21-21z m-94-85l-93 0c-12 0-21 9-21 21 0 12 9 21 21 21l93 0c12 0 21-9 21-21 0-12-9-21-21-21z"/>
<glyph glyph-name="page-inactive" unicode="&#71;" d="M256 331c-12 0-21 9-21 21 0 12 9 21 21 21l149 0c12 0 22-9 22-21 0-12-10-21-22-21z m256 87l0-301c0-23-19-42-43-42l-165 0c-1 0-3 1-4 2-1 1-1 3-1 5 4 10 7 20 8 31 1 2 3 4 5 4l147 0c6 0 10 5 10 11l0 285c0 3-1 6-3 8l-45 45c-2 2-5 3-8 3l-232 0c-6 0-10-4-10-10l0-147c0-1-1-3-2-4-1-1-3-1-4-1-10 1-24 2-32 2-3 0-5 2-5 5l0 155c0 24 19 43 43 43l247 0c11 0 22-4 30-13l52-51c8-8 12-19 12-30z m-139-162c0-12-9-21-21-21l-70 0c-1 0-3 0-4 2-7 10-16 20-25 28-1 1-2 2-2 4 0 1 1 2 2 3 4 3 9 5 14 5l85 0c12 0 21-9 21-21z m-234 21c76 0 138-62 138-138 0-77-62-139-138-139-77 0-139 62-139 139 0 76 62 138 139 138z m56-195c3 3 5 7 5 11 0 5-2 9-5 12l-30 30c-2 2-2 5 0 7l30 31c6 6 6 16 0 22-6 6-16 6-22 0l-31-30c-2-2-5-2-7 0l-30 30c-7 6-16 6-22 0-7-6-7-16-1-22l30-31c2-2 2-5 0-7l-30-30c-6-7-6-17 0-23 7-6 16-6 23 0l30 30c2 2 5 2 7 0l31-30c6-6 16-6 22 0z"/>
<glyph glyph-name="page-pdf" unicode="&#72;" d="M469 48l0 354c0 5-1 9-4 12l-64 61c-3 3-7 5-12 5l-320 0c-9 0-16-7-16-16l0-416c0-9 7-16 16-16l384 0c9 0 16 7 16 16z m32 0c0-27-21-48-48-48l-384 0c-26 0-48 21-48 48l0 416c0 27 22 48 48 48l320 0c13 0 25-5 34-14l64-61c9-9 14-22 14-35z m-272 193c-1 1-3 2-4 3-30 27-59 55-86 87-11 15-16 33-14 52 3 22 21 39 43 41l2 0c17 0 32-9 41-24 7-11 11-24 13-37 6-40 8-82 5-122z m0-3c1 0 1 1 2 1-1 1-1 1-2 2 0-1 0-2 0-3z m2 1c7 3 15 5 23 8 39 14 81 19 122 13 12-2 23-7 33-15 13-10 19-25 17-41l-1-2c-5-19-22-32-42-32-15-1-29 3-41 8-40 14-77 35-111 61z m-3-13c0-1 0-1 0-3-2-15-2-20-3-27-4-40-12-67-28-91-11-17-28-28-49-32-15-2-27 4-33 16-2 5-2 8-2 13-3 44 19 79 57 106 18 13 37 22 59 30 0-4-1-8-1-12z m18 42c19-15 40-29 62-40-15-3-29-6-44-12-28-8-53-19-72-31 0 4 1 9 1 14 1 7 2 12 3 26 0 2 0 2 0 4 3 28 3 57 1 86 16-17 32-32 49-47z m-102-164c11 3 20 9 26 19 11 16 18 35 22 62-32-20-49-46-48-81z m210 104c9-4 19-6 28-6 5 0 10 3 12 8 0 4-1 7-4 10-6 4-12 7-19 8-21 3-42 3-63 0 15-8 30-15 46-20z m-162 150l0 1c-1 9-4 17-9 25-2 5-7 8-13 8-7-1-12-6-13-13-1-10 2-21 7-28 11-13 22-25 33-36-1 14-3 29-5 43z"/>
<glyph glyph-name="product-club-prepay" unicode="&#73;" d="M205 407l0 79-55 0c-3 0-6-2-9-4l-75-75z m26 0l139 0-75 75c-2 2-5 4-9 4l-55 0z m158-26l-341 0 0-250c0-7 5-13 13-13l236 0c7 0 13-6 13-13 0-7-6-13-13-13l-236 0c-22 0-40 18-40 39l0 252c0 10 4 20 12 28l90 89c7 8 17 12 27 12l136 0c11 0 21-4 28-12l90-89c7-8 11-18 11-28l0-15c0-8-6-14-13-14-7 0-13 6-13 14z m-26-381c-6 0-10 4-10 10 0 5 4 10 10 10l29 0 0 95c-19 2-38 9-53 21-27 22-41 56-38 91 0 0 0 1 1 2l0 0c0 1 0 1 0 2l10 67c2 10 10 17 20 17l140 0c10 0 18-7 20-17l10-67c0-1 0-1 0-2l0 0c1-1 1-2 1-2 3-35-11-69-38-90-15-13-34-20-53-22l0-95 29 0c6 0 10-5 10-10 0-6-4-10-10-10z m-12 152c15-12 33-18 51-18 18 0 37 6 51 18 20 16 31 40 31 65l-164 0c0-25 11-49 31-65z m130 84l-9 59-140 0-9-59z"/>
<glyph glyph-name="product-credit" unicode="&#74;" d="M171 0c-4 0-8 0-13 0-45 4-86 24-116 59-30 34-45 78-42 124 7 89 82 158 171 158 0 0 0 0 0 0 0 0 0 0 0 0 0 94 76 171 170 171 94 0 171-77 171-171 0-94-77-170-171-170 0 0 0 0 0 0 0-5 0-9 0-12-7-89-81-159-170-159z m0 320c-78 0-144-61-149-139-3-40 10-78 36-108 26-30 62-48 102-51 4-1 7-1 11-1 78 0 143 61 149 139 0 4 0 8 0 12-77 10-138 71-148 148 0 0-1 0-1 0z m159-127c1 0 2-1 2-1 3 0 6 0 9 0 83 0 150 67 150 149 0 83-67 150-150 150-82 0-149-67-149-150 0-3 0-6 0-10 1 0 1-1 1-2 0 0 0 0 0 0 5-72 64-131 136-136 1 0 1 0 1 0z m-170-129c-6 0-11 5-11 11l0 10-21 0c-6 0-11 5-11 11 0 6 5 11 11 11l43 0c8 0 14 4 17 11 4 9-1 20-10 23l-44 18c-15 6-25 20-25 36 0 11 5 21 12 28 7 8 17 12 28 12l0 0 0 10c0 6 5 11 11 11 6 0 11-5 11-11l0-10 21 0c6 0 11-5 11-11 0-6-5-11-11-11l-43 0c-5 0-10-1-13-5-3-3-5-8-5-13 0-7 4-13 11-16l44-18c20-8 30-31 22-51-6-15-20-25-37-25l0 0 0-10c0-6-5-11-11-11z m181 181c-5 0-10 5-10 11l0 11-22 0c-6 0-10 5-10 10 0 6 4 11 10 11l44 0c7 0 14 4 16 11 2 5 2 10 0 14-2 4-5 8-10 10l-44 17c-15 6-24 21-24 37 0 21 17 39 39 39l1 0 0 11c0 6 5 10 10 10 6 0 11-4 11-10l0-11 21 0c6 0 11-5 11-11 0-6-5-10-11-10l-43 0c-10 0-18-8-18-18 0-8 5-14 11-17l44-18c10-3 18-11 22-21 4-9 4-20 0-30-6-15-20-24-36-24l-1 0 0-11c0-6-5-11-11-11z"/>
<glyph glyph-name="product-event-ticket" unicode="&#75;" d="M209 250c-11-3-22 5-24 16l-6 21c-2 11 4 23 14 25l169 42c11 3 22-4 24-16l6-20c2-12-4-23-14-26z m-6 21l170 42-5 21-170-43z m54-72c-6-2-11 2-13 8-1 5 2 11 8 13l62 15c6 1 11-2 13-8 1-5-2-11-8-13z m-23-46c-4-1-10 3-11 8-1 6 1 12 6 13l86 21c5 2 10-2 12-8 1-6-2-11-6-12z m147 12c-23-6-46 8-52 31-5 23 9 46 31 52 23 5 47-9 52-31 6-23-8-46-31-52z m-15 62c-12-3-19-14-16-26 3-11 15-18 26-15 11 2 18 14 16 25-3 12-15 19-26 16z m-267-170c-15-4-30 5-34 20l-18 73c-2 9 2 18 10 22 10 5 17 15 16 26 0 8-3 15-9 20-5 5-13 7-20 7-9 0-17 6-19 14l-18 73c-4 15 5 31 20 34l381 95c15 4 30-5 33-20l19-74c2-8-2-17-10-21-12-6-19-19-15-32 3-13 15-22 28-21 9 0 17-6 19-14l18-74c4-15-5-30-20-34z m-67 271c-5-1-8-6-7-11l18-73c26 1 48-19 49-45 1-19-10-36-27-44l19-73c1-5 6-9 11-7l380 95c5 1 8 6 7 11l-18 73c-22-1-42 14-48 36-5 21 6 43 26 53l-19 73c-1 5-6 8-11 7z m128-207c-11-3-22 0-23 5-2 6 6 13 18 16 11 3 22 0 23-5 2-6-7-13-18-16z m0 43c-11-3-22-1-23 5-2 6 6 13 18 16 11 2 22 0 23-6 2-5-7-12-18-15z m-21 43c-12-3-22-1-24 5-1 5 7 12 19 15 11 3 21 1 23-5 1-6-7-13-18-15z m-22 42c-11-3-21 0-23 5-1 6 7 13 18 16 12 3 22 0 24-5 1-6-7-13-19-16z m0 64c-11-3-21 0-23 5-1 6 7 13 18 16 12 3 22 0 24-5 1-6-7-13-19-16z"/>
<glyph glyph-name="product-gift-card" unicode="&#76;" d="M307 56c-11 0-19 8-19 19l0 93c-10 0-19 8-19 19l0 37c0 10 9 19 19 19l58 0c-5 3-10 6-14 9 0 1-1 1-1 1-10 10-15 19-15 28 0 7 3 13 8 18 6 6 12 9 19 9 8 0 17-5 28-15 0 0 0-1 0-1 8-10 15-21 20-32 5 11 11 22 19 32 0 0 0 1 1 1 10 10 19 15 28 15 6 0 12-3 18-9 6-5 8-11 8-18 0-9-5-18-15-28 0 0 0 0 0-1-5-3-10-6-14-9l57 0c11 0 19-9 19-19l0-37c0-11-8-19-19-19l0-93c0-11-8-19-18-19l-168 0z m168 19l0 93-75 0 0-93z m-168 0l74 0 0 93-74 0z m186 112l0 37-93 0 0-37z m-205 0l93 0 0 37-93 0z m136 93c-7-10-13-20-18-32 11 5 22 11 32 19 8 8 9 13 9 14 0 1-1 3-3 5-2 2-3 3-5 3-2 0-7-1-15-9z m-80-13c10-8 20-14 31-19-4 12-10 22-18 32-8 8-12 9-14 9-2 0-4-1-5-3-3-2-3-4-3-5 0-1 1-6 9-14z m55 80l-384 0 0-166c0-18 15-32 33-32l199 0c5 0 8-4 8-8 0-4-3-8-8-8l-199 0c-27 0-48 21-48 48l0 219c0 27 21 48 48 48l319 0c26 0 48-21 48-48l0-75c0-4-4-8-8-8-4 0-8 4-8 8z m0 21l0 32c0 18-14 33-32 33l-319 0c-18 0-33-15-33-33l0-32z m-192-80c5 0 8-4 8-10 0-6-3-11-8-11l-159 0c-5 0-8 5-8 11 0 6 3 10 8 10z m-99-60c4 0 7-4 7-10 0-6-3-11-7-11l-60 0c-5 0-8 5-8 11 0 6 3 10 8 10z"/>
<glyph glyph-name="product-product" unicode="&#77;" d="M117 0c-11 0-21 10-21 21l0 261-16-18c-2-1-4-3-6-4-3-1-6-2-9-2-3 0-5 0-7 1-6 2-10 6-12 11l-44 86c-4 8-2 18 4 25l80 83c10 10 24 16 39 16l33 0c2 3 4 6 6 9l8 7c10 10 23 16 38 16l92 0c7 0 13-1 19-3 0 0 0 0 0 0 7-3 14-7 19-13l8-7c2-3 4-6 6-9l33 0c15 0 29-6 39-16l80-83c6-7 8-17 4-25l-44-86c-1-2-2-4-3-6-4-4-10-6-16-6-5 0-11 2-15 6l-16 18 0-261c0-11-10-21-21-21z m-10 320c1 0 2 0 4-1 4-1 6-5 6-10l0-288 278 0 0 288c0 5 2 9 6 10 2 1 3 1 4 1 3 0 6-1 8-3l34-38 44 87-81 83c-6 6-14 10-23 10l-31 0c-1-4-2-7-4-10l-38-61c-3-5-8-8-13-9-2-1-4-1-5-1-4 0-8 1-12 3 0 1-1 1-1 1l-16 13 0-86c0-6-5-10-11-10-6 0-11 4-11 10l0 86-16-13c-4-2-8-4-13-4-1 0-2 0-3 0-5 1-10 4-14 9 0 0-1 1-1 1l-38 61c-2 3-3 6-4 10l-31 0c-9 0-17-4-23-10l-81-83 44-87 34 38c2 2 5 3 8 3z m189 79l38 62c3 4 2 9-2 13l-7 7c-1 2-3 3-4 4l-50-67z m-105 86c-1-1-3-2-4-4l-7-7c-4-4-5-9-2-13l38-61 25 18z m65-51l43 57-86 0z"/>
<glyph glyph-name="product-product-bundle" unicode="&#78;" d="M279 147c-1 0-2 1-3 2-1 1-1 2-1 3 0 1 0 3 1 3l34 33c2 2 5 3 7 3 1 0 2 0 3 0l22-6-20 25c-2 3-2 7 0 10 1 3 5 5 8 5 2 0 4-1 5-1l28-15-19 31c-1 3-1 7 0 10 2 2 4 3 6 4 1 0 2 0 3 0 2 0 3 0 5-1l13-7 11 11c-4 4-4 10 0 14l21 20-38 36c-5 5-7 11-7 17 0 7 2 12 7 17l7 7c4 4 11 7 17 7 7 0 13-3 18-7l98-94c9-9 9-24 0-34l-7-6c-5-5-11-7-18-7-6 0-13 2-17 7l-39 37-21-21c-2-1-4-2-7-2-2 0-5 1-7 2l-11-10c-2-2-4-3-7-3-2 0-3 0-5 1l-13 7 18-31c3-5 1-11-4-13-1-1-3-1-4-1-2 0-4 0-5 1l-28 14 20-25c2-2 2-4 2-7-1-2-2-4-4-6-2-1-4-2-6-2-1 0-2 0-3 1l-22 6-34-33c-1-1-2-2-4-2z m110 218c-4 0-7-1-10-4l-7-7c-3-2-5-6-5-10 0-4 2-7 5-10l98-94c3-2 6-4 10-4 4 0 8 2 11 4l7 7c3 3 4 6 4 10 0 4-1 8-4 10l-98 94c-3 3-7 4-11 4z m0-101l7-7 21 20-7 7z m-335-117c-5 0-10 5-10 10l0 121-7-8c-1-1-2-2-3-2-1-1-3-1-4-1-1 0-2 0-3 0-3 1-5 3-6 5l-20 40c-2 4-1 8 2 11l37 39c5 4 11 7 18 7l15 0c1 2 2 3 3 4l3 4c5 4 11 7 18 7l43 0c3 0 6-1 8-2 0 0 0 0 0 0 4-1 7-3 9-5l4-4c1-1 2-2 3-4l15 0c7 0 13-3 18-7l37-39c3-3 4-7 2-11l-20-40c-1-1-1-2-2-3-2-1-5-2-7-2-3 0-5 1-7 2l-8 9 0-121c0-5-4-10-10-10z m-5 148c1 0 2 0 2 0 2-1 3-3 3-5l0-133 128 0 0 133c0 2 2 4 4 5 0 0 1 0 1 0 2 0 3 0 4-1l16-18 20 40-37 39c-3 3-7 4-11 4l-14 0c-1-1-1-3-2-4l-18-28c-1-2-4-4-6-5-1 0-2 0-2 0-2 0-4 1-6 2 0 0 0 0 0 0l-8 6 0-40c0-2-2-5-5-5-2 0-5 3-5 5l0 40-7-6c-2-1-4-2-6-2-1 0-1 0-1 0-3 1-5 2-7 4 0 0 0 1 0 1l-18 28c-1 1-2 3-2 4l-14 0c-4 0-8-1-11-4l-37-39 20-40 16 18c1 1 2 1 3 1z m88 37l17 28c2 2 1 5 0 6l-4 4c0 0-1 1-2 1l-23-30z m-49 39c0 0-1-1-2-1l-3-4c-2-1-2-4-1-6l18-28 11 9z m30-23l20 26-39 0z"/>
<glyph glyph-name="product-wine" unicode="&#79;" d="M193 0c-6 0-10 5-10 11 0 6 4 10 10 10l55 0 0 171c-80 6-141 70-141 149 0 1 0 1 0 2l20 150c2 11 11 19 22 19l219 0c11 0 20-8 22-19l20-150c0-1 0-1 0-2 0-79-61-143-141-149l0-171 54 0c6 0 11-4 11-10 0-6-5-11-11-11z m-65 341c1-71 59-128 130-128 72 0 130 57 130 128l-3 22-254 0z m255 43l-15 107-219 0-15-107z"/>
<glyph glyph-name="product-wine-bottle" unicode="&#80;" d="M310 357c0-1 1-3 2-4l43-52c5-6 8-13 8-21l0-248c0-18-15-32-32-32l-128 0c-18 0-32 14-32 32l0 248c0 8 2 15 7 21l44 52c1 2 2 4 2 7l0 120c0 18 14 32 32 32l21 0c18 0 32-14 32-32l0-120c0-1 0-2 1-3z m-15-18c-4 6-7 13-7 21l0 67-43 0 0-67c0-8-2-15-7-21l-44-52c-1-2-2-4-2-7l0-248c0-6 5-11 11-11l128 0c6 0 10 5 10 11l0 248c0 3-1 5-2 7z m-7 109l0 32c0 6-5 11-11 11l-21 0c-6 0-11-5-11-11l0-32z"/>
<glyph glyph-name="security-user" unicode="&#82;" d="M291 0c-19 0-35 16-35 35l0 139c0 19 16 35 35 35l12 0 0 23c0 38 32 69 70 69 39 0 71-31 71-69l0-23 11 0c20 0 36-16 36-35l0-139c0-19-16-35-36-35z m0 185c-6 0-11-5-11-11l0-139c0-7 5-12 11-12l164 0c7 0 12 5 12 12l0 139c0 6-5 11-12 11z m129 24l0 23c0 25-21 46-47 46-25 0-46-21-46-46l0-23z m-47-147c-22 0-41 18-41 41 0 22 19 40 41 40 23 0 41-18 41-40 0-23-18-41-41-41z m0 58c-9 0-17-8-17-17 0-10 8-18 17-18 10 0 18 8 18 18 0 9-8 17-18 17z m-192 192c-56 0-101 45-101 100 0 55 45 100 101 100 56 0 101-45 101-100 0-55-45-100-101-100z m0 179c-44 0-80-36-80-79 0-44 36-79 80-79 44 0 80 35 80 79 0 43-36 79-80 79z m-149-358c-6 0-11 5-11 10 0 42 17 82 47 112 30 30 71 46 113 46 31 0 61-8 87-25 5-3 6-9 3-14-2-3-6-5-9-5-2 0-4 0-6 2-22 14-48 21-75 21-73 0-133-55-138-126l160 0c5 0 10-5 10-11 0-5-5-10-10-10z"/>
<glyph glyph-name="shop" unicode="&#84;" d="M80 0c-26 0-48 22-48 48l0 192c0 9 7 16 16 16 9 0 16-7 16-16l0-192c0-9 7-16 16-16l176 0 0 128c0 44 36 80 80 80 44 0 80-36 80-80l0-128 16 0c9 0 16 7 16 16l0 192c0 9 7 16 16 16 9 0 16-7 16-16l0-192c0-26-22-48-48-48z m304 32l0 128c0 26-22 48-48 48-26 0-48-22-48-48l0-128z m64 256c-18 0-36 8-48 22-12-14-30-22-48-22-18 0-36 8-48 22-12-14-30-22-48-22-18 0-36 8-48 22-12-14-30-22-48-22-18 0-36 8-48 22-12-14-30-22-48-22-35 0-64 29-64 64 0 1 0 2 0 3l30 132c3 15 16 25 31 25l390 0c15 0 28-11 31-25l30-132c0-1 0-2 0-3 0-35-29-64-64-64z m-48 80c9 0 16-7 16-16 0-18 14-32 32-32 17 0 31 14 32 30l-29 130-390 0-29-130c1-16 15-30 32-30 18 0 32 14 32 32 0 9 7 16 16 16 9 0 16-7 16-16 0-18 14-32 32-32 18 0 32 14 32 32 0 9 7 16 16 16 9 0 16-7 16-16 0-18 14-32 32-32 18 0 32 14 32 32 0 9 7 16 16 16 9 0 16-7 16-16 0-18 14-32 32-32 18 0 32 14 32 32 0 9 7 16 16 16z m-272-304c-18 0-32 14-32 32l0 64c0 18 14 32 32 32l64 0c18 0 32-14 32-32l0-64c0-18-14-32-32-32z m0 32l64 0 0 64-64 0z m216 0c-13 0-24 11-24 24 0 13 11 24 24 24 13 0 24-11 24-24 0-13-11-24-24-24z"/>
<glyph glyph-name="size" unicode="&#86;" d="M95 0c-8 0-15 3-21 9l-50 50c-2 2-3 4-3 6 0 2 1 4 3 5l10 11c2 2 4 2 6 2 2 0 4 0 5-2l35-35 0 337c0 26 21 46 46 46l338 0-35 35c-3 3-5 7-5 11 0 4 2 8 5 11 2 3 6 5 10 5 5 0 8-2 11-5l51-50c12-12 12-32 0-44l-51-50c-3-3-6-5-11-5-4 0-8 2-10 5-3 3-5 7-5 11 0 4 2 8 5 11l35 35-338 0c-8 0-15-7-15-16l0-337 35 35c3 3 7 5 11 5 4 0 8-2 11-5 6-6 6-16 0-22l-51-50c-5-6-13-9-21-9 0 0-1 0-1 0z m369 0c-9 0-16 7-16 15 0 9 7 16 16 16 8 0 15 7 15 15 0 8 7 15 15 15 9 0 16-7 16-15 0-25-21-46-46-46z m-92 0c-9 0-16 7-16 15 0 9 7 16 16 16l30 0c9 0 16-7 16-16 0-8-7-15-16-15z m-92 0c-9 0-16 7-16 15 0 9 7 16 16 16l30 0c9 0 16-7 16-16 0-8-7-15-16-15z m-92 0c-9 0-16 7-16 15 0 9 7 16 16 16l30 0c9 0 16-7 16-16 0-8-7-15-16-15z m306 92c-8 0-15 7-15 15l0 31c0 8 7 15 15 15 9 0 16-7 16-15l0-31c0-8-7-15-16-15z m0 92c-8 0-15 7-15 15l0 31c0 8 7 15 15 15 9 0 16-7 16-15l0-31c0-8-7-15-16-15z m0 92c-8 0-15 7-15 15l0 31c0 8 7 15 15 15 9 0 16-7 16-15l0-31c0-8-7-15-16-15z"/>
<glyph glyph-name="view-off" unicode="&#89;" d="M500 288c16-18 16-45 0-63-56-62-148-127-241-127l-6 0c-33 1-64 8-94 21l-90-90c-8-8-19-9-28-3-8 6-12 17-8 26 0 0 1 0 1 1l424 424c2 2 3 4 4 7l1 0c5 6 13 8 21 6 7-2 13-8 15-16 2-7 0-15-6-21l-87-87c35-22 66-48 94-78z m-150-59c7 22 5 45-5 66 0 2-2 3-4 3-1 1-3 0-4-1l-121-121c-2-2-2-3-2-5 0-2 1-3 3-4 21-10 45-11 68-4 31 10 55 34 65 66z m-190-3l-66-67c-2-2-5-2-7 0-27 19-52 41-75 66-16 18-16 45 0 63 57 62 150 127 244 126 24 0 48-3 71-11 1 0 3-2 3-4 1-2 0-4-1-5l-43-42c-1-2-3-2-5-2-8 3-16 4-25 4-54 0-98-44-98-98 0-8 1-17 4-25 0-2 0-4-2-5z"/>
<glyph glyph-name="wine-varietal" unicode="&#90;" d="M30 212c-6 6-6 14-1 20 6 5 14 5 20 0 5-5 5-14 0-19-5-6-14-6-19-1z m15 16c-3 3-9 3-12 0-3-3-3-9 1-12 3-3 8-3 11 1 3 3 3 8 0 11z m26 26c-5 6-5 14 0 20 5 5 14 5 19 0 6-5 6-14 1-19-6-6-14-6-20-1z m15 16c-3 3-8 3-11 0-3-3-3-8 0-12 3-3 9-3 12 1 3 3 3 8-1 11z m-39 6c-6 5-6 14-1 19 6 6 14 6 20 1 5-6 5-14 0-20-5-5-14-5-19 0z m15 16c-3 3-9 3-12-1-3-3-3-8 1-11 3-3 8-3 11 0 3 3 3 8 0 12z m33-61c-6 5-6 14-1 19 6 6 14 6 20 1 5-6 5-14 0-20-5-5-14-5-19 0z m15 16c-3 3-9 3-12 0-3-4-3-9 0-12 4-3 9-3 12 0 3 3 3 9 0 12z m-50-28c-6 6-6 14-1 20 5 5 14 5 20 0 5-5 5-14 0-19-5-6-14-6-19-1z m15 16c-3 3-9 3-12 0-3-3-3-9 0-12 4-3 9-3 12 0 3 4 3 9 0 12z m-39 8c-5 5-5 14 0 19 5 5 14 6 19 0 6-5 6-14 0-19-5-5-13-6-19 0z m15 15c-3 4-8 3-11 0-3-3-3-8 0-11 3-3 8-3 12 0 3 3 3 8-1 11z m42 21c0 1 0 2 1 3l23 24c1 1 2 1 3 1 1-1 1-3 0-4l-23-24c-1-1-3-1-4 0z m14-15c-1 2-3 4-4 5 0 1 0 1 0 1-2 3-1 6 1 7 15 9 33 6 45-5 2-2 3-4 5-6 0 0 0 0 0 0 1-1 1-3 1-4-1-2-2-3-3-4-14-8-32-6-45 6z m38 4c-10 10-25 12-38 5 1-2 3-4 4-5 11-10 26-12 38-5-1 2-2 3-4 5z m-66 23c-12 11-15 29-7 44 1 3 5 4 7 2 0 0 1 0 1 0 2-1 4-3 5-5 12-11 15-29 8-44-2-2-5-3-8-2 0 0 0 0 0 0-2 2-4 3-6 5z m3 38c-2 1-3 2-5 3-7-12-4-27 6-37 1-2 3-3 5-4 6 12 4 28-6 38z m-30-154c-2 0-4 1-4 3 0 1 2 2 4 2l232 0c2 0 3-1 3-2 0-2-1-3-3-3z m286 0c-2 0-3 1-3 3 0 1 1 2 3 2l143 0c2 0 4-1 4-2 0-2-2-3-4-3z m98 21c-31 0-36 17-36 18-1 3-2 6-2 9-1 1-1 1-1 2 0 4-1 9-1 13-2 17 0 34 4 50 0 10 16 18 36 18 21 0 36-8 37-18 4-16 5-33 4-50-1-4-1-9-2-13 0-1 0-1 0-2-1-3-2-6-2-9-1-1-6-18-37-18z m-33 22c1-1 1-2 1-3 0 0 5-15 32-15 14 0 22 4 27 8 4 3 5 7 5 7 0 1 1 2 1 3-8-5-20-8-33-8-13 0-25 3-33 8z m-1 7c4-6 19-11 34-11 15 0 30 5 34 11 1 2 1 5 1 7-7-5-20-9-35-9-15 0-28 4-35 9 0-2 1-5 1-7z m-2 14c4-6 19-11 36-11 17 0 32 5 36 11 0 4 1 8 1 13-8-6-22-10-37-10-15 0-29 4-36 10 0-5 0-9 0-13z m0 19c4-6 18-12 36-12 14 0 32 5 36 12 0 3 0 6 0 8-7-6-22-10-36-10-14 0-28 4-35 10-1-2-1-5-1-8z m1 14c4-6 18-12 35-12 17 0 31 6 35 12 0 3-1 6-1 8-6-6-19-11-34-11-15 0-28 5-33 11-1-2-1-5-2-8z m35 29c-17 0-32-6-32-13 0-8 15-14 32-14 17 0 32 6 32 14 0 7-15 13-32 13z m-14-21c-5 0-9 3-9 7 0 3 4 6 9 6 5 0 9-3 9-6 0-4-4-7-9-7z m0 9c-2 0-4-1-4-2 0-1 2-2 4-2 3 0 5 1 5 2 0 1-2 2-5 2z m-207-88c-1 0-2 1-2 2-2 8-6 17-10 24-2-5-6-7-9-8-1 0-1 0-2 0-6 0-12 6-15 9-7 9-10 32-4 45 1 0 1 1 2 1 0 0 0 0 1 0 0 0 1 0 1 0 5-5 11-7 16-8 7-2 12-4 17-9 5-6 6-11 5-16-1-4-3-8-8-10 3-7 6-13 9-20 1 2 3 6 5 9-3 4-4 7-4 9 0 4 2 8 6 11 4 2 8 3 11 4 4 1 8 2 12 6 1 0 1 0 2 0 0 0 0 0 0 0 1 0 2-1 2-2 3-10 2-22-5-32 0 0 0 0 0 0-3-4-7-6-11-6-1 0-1 0-2 0-3 1-6 3-8 6-4-7-7-13-7-13 0-1-1-2-2-2 0 0 0 0 0 0z m13 19c2-3 3-5 5-5 1 0 1 0 1 0 3 0 5 2 8 4 5 8 6 17 4 26-3-3-7-4-10-5-4-1-7-2-9-4-3-2-5-4-5-6 0-3 2-4 3-6 3 4 7 7 11 9 0 0 1 1 1 1 1 0 2-1 2-2 1-1 0-3-1-3-3-2-7-5-10-9z m-52 47c-4-11-1-29 5-36 2-2 6-7 11-7 0 0 0 0 1 0 3 1 5 3 7 8-4 7-10 14-16 20-1 1-2 3-1 4 1 0 1 0 2 0 1 0 1 0 2 0 6-7 12-14 17-21 4 2 6 4 7 7 1 4-2 8-5 11-3 4-9 6-14 8-5 1-11 3-16 6z m71 42c0 0 0 0 0 0l8 53c0 4 3 7 7 7l97 0c3 0 6-3 7-7l9-68c0-35-28-63-62-64l0-82 26 0c1 0 2-1 2-2 0-2-1-3-2-3l-58 0c-1 0-2 1-2 3 0 1 1 2 2 2l27 0 0 82c-35 1-62 29-62 64l0 1z m122-3l-117 0-2-12c0-33 27-60 60-60 33 0 60 27 60 60z m-1 5l-7 51c0 1-1 2-2 2l-97 0c-2 0-3-1-3-2l-7-51z"/>
<glyph glyph-name="1" unicode="&#48;" d="M348 0l-64 0 0 450-135-68 0 59 136 71 63 0z"/>
<glyph glyph-name="2" unicode="&#49;" d="M439 0l-354 0 0 41c122 109 284 193 284 317 0 65-32 105-107 105-52 0-112-16-112-114l-63 0c1 133 106 163 175 163 114 0 169-65 169-154 0-132-160-228-246-304l254 0z"/>
<glyph glyph-name="3" unicode="&#50;" d="M236 243l-44 0 0 47 43 0c79 0 128 27 128 93 0 52-38 81-103 81-51 0-107-17-109-105l-60 0c1 123 104 153 169 153 96 0 163-47 163-124 0-64-34-103-98-117 59-6 113-47 113-125 0-86-70-146-177-146-79 0-174 31-176 153l63 0c0-79 51-104 113-104 72 0 114 33 114 98 0 72-58 96-139 96z"/>
<glyph glyph-name="4" unicode="&#51;" d="M385 0l-63 0 0 116-258 0 0 51 232 345 89 0 0-344 80 0 0-52-80 0z m-63 168l0 291-200-291z"/>
<glyph glyph-name="account" unicode="&#52;" d="M262 256c-65 0-118 54-118 119 0 66 53 120 118 120 65 0 118-54 118-120 0-65-53-119-118-119z m0 209c-49 0-89-40-89-90 0-49 40-89 89-89 49 0 88 40 88 89 0 50-39 90-88 90z m192-448c-8 0-15 7-15 15 0 99-79 179-177 179-98 0-178-80-178-179 0-8-6-15-14-15-8 0-15 7-15 15 0 115 93 209 207 209 114 0 207-94 207-209 0-8-7-15-15-15z"/>
<glyph glyph-name="add" unicode="&#53;" d="M10 246c0-17 14-31 31-31l179 0c3 0 5-2 5-5l0-179c0-17 14-31 31-31 17 0 31 14 31 31l0 179c0 3 2 5 5 5l179 0c17 0 31 14 31 31 0 17-14 30-31 30l-179 0c-3 0-5 3-5 6l0 179c0 17-14 31-31 31-17 0-31-14-31-31l0-179c0-3-2-6-5-6l-179 0c-17 0-31-13-31-30z"/>
<glyph glyph-name="cart" unicode="&#54;" d="M128 67c-9 0-16 7-16 16 0 8 7 16 16 16l212 0c7 0 14 5 15 13l9 51-239 0c-36 0-68 25-77 60l-31 124c-2 8-1 17 4 24 4 8 11 13 19 15 3 0 5 1 8 1l354 0 10 56c4 23 24 40 47 40l21 0c9 0 16-8 16-16 0-9-7-16-16-16l-21 0c-8 0-14-6-16-14l-56-330c-4-24-24-40-47-40l-212 0z m-49 164c5-21 24-36 46-36l244 0 28 160-349 0z m89-228c-13 0-24 10-24 24 0 13 11 24 24 24 13 0 24-11 24-24 0-14-11-24-24-24z m160 0c-13 0-24 10-24 24 0 13 11 24 24 24 13 0 24-11 24-24 0-14-11-24-24-24z"/>
<glyph glyph-name="angle-down" unicode="&#55;" d="M256 98c-13 0-25 6-34 15l-192 222c-13 15-11 38 4 51 14 13 37 12 50-3l169-193c1-1 2-2 3-2 2 0 3 1 4 2l168 193c9 10 22 15 35 12 13-2 23-11 28-24 4-13 1-27-8-36l-193-221c-8-10-21-16-34-16z"/>
<glyph glyph-name="check-2" unicode="&#56;" d="M494 375l-60 60c-2 2-4 3-7 3-3 0-6-1-8-3l-251-252c-2-2-5-3-8-3-3 0-6 1-8 3l-59 60c-2 2-5 3-8 3-2 0-5-1-7-3l-60-60c-4-4-4-10 0-15l134-134c2-2 5-3 8-3 3 0 6 1 8 3l326 327c4 4 4 10 0 14z"/>
<glyph glyph-name="check-badge" unicode="&#57;" d="M238 168c-7 0-13 3-19 7-1 1-2 2-3 3l-51 51c-3 3-5 7-5 11 0 4 2 8 5 11 3 3 7 5 11 5 4 0 8-2 11-5l51-51 85 114c3 4 8 6 13 6 3 0 7-1 10-3 7-6 8-16 3-23l-85-113c-5-7-13-11-21-12-2-1-3-1-5-1z m18-168c-12 0-23 4-32 11-3 2-5 5-8 8l-32 40c-3 5-9 7-14 7-1 0-2 0-3 0l-51-6c-2 0-4 0-5 0-12 0-23 4-32 11-11 9-17 21-19 34 0 4 0 8 0 11l6 52c1 6-2 12-7 16l-40 33c-11 8-17 20-19 34-1 13 3 26 11 37 2 3 5 5 8 8l40 32c5 4 8 10 7 17l-6 51c-1 13 3 26 11 37 9 11 21 17 34 19 2 0 4 0 6 0 2 0 3 0 5 0l52-6c0 0 1 0 2 0 5 0 11 3 14 7l32 40c10 12 25 19 40 19 12 0 23-4 32-11 3-3 5-5 8-8l32-40c3-5 9-7 14-7 1 0 2 0 2 0l52 6c2 0 3 0 5 0 12 0 23-4 32-11 11-9 17-21 19-34 0-4 0-8 0-12l-6-51c-1-6 2-12 7-16l40-33c11-8 17-20 19-34 1-13-3-26-11-37-2-3-5-5-8-8l-40-32c-5-4-8-10-7-17l6-51c1-13-3-26-11-37-9-11-21-17-34-19-2 0-4 0-6 0-2 0-4 0-5 0l-52 6c0 0-1 0-2 0-5 0-11-3-14-7l-32-40c-9-11-21-17-35-19-1 0-3 0-5 0z m-86 98c15 0 29-7 39-19l32-40c1-1 2-2 3-3 4-3 8-4 12-4 1 0 1 0 2 0 5 1 9 3 13 7l32 40c9 12 24 19 39 19 2 0 4 0 6 0l51-6c1 0 1 0 2 0 1 0 1 0 2 0 5 1 10 3 13 7 3 4 4 9 4 14l-6 51c-2 17 5 34 19 45l40 32c1 1 2 2 3 3 3 4 5 9 4 14-1 5-3 9-7 12l-40 33c-14 11-21 27-19 45l6 51c0 1 0 3 0 4-1 5-3 10-7 13-3 2-7 4-12 4 0 0-1 0-2 0l-51-6c-2 0-4 0-6 0-15 0-29 7-39 19l-32 40c-1 1-2 2-3 3-4 3-8 4-12 4-6 0-11-3-15-7l-32-40c-10-12-24-19-39-19-2 0-4 0-6 0l-51 6c-1 0-2 0-2 0-1 0-2 0-2 0-5-1-10-3-13-7-3-4-4-9-4-14l6-51c2-17-5-34-19-45l-40-32c-1-1-2-2-3-3-6-8-5-20 3-26l40-33c14-11 21-27 19-45l-6-51c0-1 0-3 0-4 1-5 3-10 7-13 3-2 7-4 12-4 0 0 1 0 2 0l51 6c2 0 4 0 6 0z"/>
<glyph glyph-name="check-circle" unicode="&#33;" d="M256 512c-141 0-256-115-256-256 0-141 115-256 256-256 141 0 256 115 256 256 0 141-115 256-256 256z m148-175l-146-198c-4-5-9-8-15-9-5 0-11 1-16 5l-104 83c-9 8-11 21-3 30 7 9 20 11 30 4l87-70 132 180c5 7 12 10 20 10 8-1 15-6 18-13 3-7 2-16-3-22z"/>
<glyph glyph-name="angle-left" unicode="&#34;" d="M92 267c0 13 6 26 16 35l229 201c15 13 39 12 52-4 14-15 13-39-3-53l-199-175c-1-1-2-3-2-4 0-2 1-3 2-4l199-176c11-9 16-22 13-36-2-13-12-24-25-29-13-4-27-1-37 8l-229 201c-10 9-16 22-16 36z"/>
<glyph glyph-name="angle-down-2" unicode="&#35;" d="M256 119c-8 0-15 3-21 9l-209 210c-3 2-5 6-5 10 0 4 2 8 5 10 2 3 6 5 10 5 4 0 8-2 10-5l210-209 210 209c2 3 6 5 10 5 4 0 8-2 10-5 3-2 5-6 5-10 0-4-2-8-5-10l-209-210c-6-6-13-9-21-9z"/>
<glyph glyph-name="angle-right" unicode="&#36;" d="M420 266c0-14-5-27-16-36l-229-202c-16-13-39-11-53 4-14 16-12 39 3 53l200 177c2 1 2 2 2 4 0 1 0 3-2 4l-200 176c-15 14-17 38-3 53 14 16 37 17 53 4l229-202c11-9 16-22 16-35z"/>
<glyph glyph-name="checkmark" unicode="&#37;" d="M499 506c-15 10-35 7-45-7l-299-418-100 100c-8 8-20 11-31 9-11-3-20-12-23-23-3-11 0-23 8-31l127-127c7-6 16-9 25-9 9 1 18 6 24 13l321 448c10 15 7 35-7 45z"/>
<glyph glyph-name="close" unicode="&#38;" d="M468 24c-6 0-12 2-16 6l-204 206-204-206c-4-4-10-6-15-6-6 0-12 2-16 6-9 9-9 23 0 32l204 206-204 206c-4 4-6 10-6 16 0 6 2 11 6 15 4 5 10 7 16 7 5 0 11-2 15-7l204-206 204 206c5 5 10 7 16 7 6 0 11-2 15-7 5-4 7-9 7-15 0-6-2-12-7-16l-204-206 204-206c9-9 9-23 0-32-4-4-9-6-15-6z"/>
<glyph glyph-name="angle-up" unicode="&#39;" d="M258 396c13 0 26-6 34-15l193-222c9-10 12-24 8-37-4-12-14-22-27-24-13-3-27 2-35 12l-169 194c-1 1-2 2-4 2-1 0-3-1-3-2l-169-194c-9-10-22-15-35-12-13 2-24 12-28 24-4 13-1 27 8 37l193 222c9 9 21 15 34 15z"/>
<glyph glyph-name="bell" unicode="&#40;" d="M256 0c-10 0-20 3-29 7-14 8-25 21-29 36-3 9 2 18 11 20 1 1 3 1 4 1 7 0 13-5 16-12 2-7 7-13 13-17 4-2 9-3 14-3 3 0 5 0 8 1 9 3 16 10 19 19 2 7 9 12 16 12 1 0 3 0 4-1 9-2 13-11 11-20-6-19-21-35-41-41-6-1-11-2-17-2z m-192 96c-6 0-12 3-15 9-2 6-2 12 2 17 0 0 29 41 29 166 0 92 69 167 160 175l0 33c0 9 7 16 16 16 9 0 16-7 16-16l0-33c90-8 160-83 160-175 0-134 26-164 27-164 4-5 6-12 4-18-3-6-9-10-15-10z m356 32c-10 26-20 74-20 160 0 79-65 144-144 144-80 0-144-65-144-144 0-84-13-134-23-160z"/>
<glyph glyph-name="community" unicode="&#41;" d="M432 0c-4 0-8 2-11 5l-92 91-89 0c-26 0-48 22-48 48l0 160c0 26 22 48 48 48l224 0c26 0 48-22 48-48l0-160c0-26-22-48-48-48l-16 0 0-80c0-6-4-12-10-15-2-1-4-1-6-1z m-192 320c-9 0-16-7-16-16l0-160c0-9 7-16 16-16l96 0c4 0 8-2 11-5l69-68 0 57c0 9 7 16 16 16l32 0c9 0 16 7 16 16l0 160c0 9-7 16-16 16z m-160-160c-2 0-4 0-6 1-6 3-10 9-10 15l0 80-16 0c-26 0-48 22-48 48l0 160c0 26 22 48 48 48l224 0c26 0 48-22 48-48l0-64c0-9-7-16-16-16-9 0-16 7-16 16l0 64c0 9-7 16-16 16l-224 0c-9 0-16-7-16-16l0-160c0-9 7-16 16-16l32 0c9 0 16-7 16-16l0-57 37 36c3 3 7 5 11 5 4 0 8-2 11-5 7-6 7-16 0-22l-64-64c-3-3-7-5-11-5z"/>
<glyph glyph-name="close-1" unicode="&#42;" d="M401 96c-4 0-8 2-11 4l-139 140-140-140c-3-2-7-4-11-4-4 0-7 2-10 4-6 6-6 16 0 22l139 139-139 140c-3 3-5 7-5 11 0 4 2 7 5 10 3 3 6 5 10 5 4 0 8-2 11-5l140-139 139 139c3 3 7 5 11 5 4 0 8-2 11-5 2-3 4-6 4-10 0-4-2-8-4-11l-140-140 140-139c5-6 5-16 0-22-3-2-7-4-11-4z"/>
<glyph glyph-name="edit" unicode="&#43;" d="M26 0c-4 0-8 2-11 5-4 3-6 9-4 14l36 142c0 0 0 1 1 1 0 0 0 1 0 1 1 2 2 3 3 4 0 1 297 298 297 298 17 17 40 27 64 27 24 0 47-10 64-27 0 0 0 0 0 0 35-36 34-93-1-127 0 0-297-297-297-297-1-1-3-3-5-3 0 0 0-1 0-1-1 0-1 0-2 0l-142-36c-1-1-2-1-3-1z m21 37l90 23-67 67z m120 36l224 224-84 84-223-224z m246 246l21 21-84 84-21-22z m42 43c22 23 21 59-1 81 0 0 0 1 0 1-11 11-26 17-42 17-15 0-29-6-40-16z"/>
<glyph glyph-name="drag" unicode="&#44;" d="M113 203l0 36 286 0 0-36z m286 106l0-36-286 0 0 36z"/>
<glyph glyph-name="delete-2" unicode="&#45;" d="M415 331c3 0 6-2 8-4 2-2 3-5 3-8l-28-302c-2-22-20-38-42-38l-200 0c-22 0-40 16-42 38l-28 302c0 3 1 6 3 8 2 2 5 4 8 4z m-196-278l0 192c0 9-7 16-16 16-9 0-16-7-16-16l0-192c0-9 7-16 16-16 9 0 16 7 16 16z m106 0l0 192c0 9-7 16-16 16-8 0-16-7-16-16l0-192c0-9 8-16 16-16 9 0 16 7 16 16z m144 352c12 0 22-9 22-21 0-12-10-21-22-21l-426 0c-12 0-22 9-22 21 0 12 10 21 22 21l101 0c1 0 3 1 4 2 1 1 1 2 1 4l0 26c0 30 24 54 54 54l106 0c30 0 54-24 54-54l0-26c0-3 2-6 5-6z m-277 6c0-3 2-6 5-6l118 0c3 0 5 3 5 6l0 26c0 6-5 11-11 11l-106 0c-6 0-11-5-11-11z"/>
<glyph glyph-name="delete" unicode="&#46;" d="M147 11c-25 0-46 19-48 44l-28 340-34 0c-8 0-16 7-16 16 0 8 8 16 16 16l128 0 0 16c0 26 22 48 48 48l96 0c27 0 48-22 48-48l0-16 128 0c9 0 16-8 16-16 0-9-7-16-16-16l-33 0-28-340c-2-25-23-44-48-44z m-16 46c1-8 8-14 16-14l229 0c8 0 15 6 16 14l28 338-317 0z m194 370l0 16c0 8-7 16-16 16l-96 0c-8 0-16-8-16-16l0-16z m-112-304c-8 0-16 7-16 16l0 160c0 8 8 16 16 16 9 0 16-8 16-16l0-160c0-9-7-16-16-16z m96 0c-8 0-16 7-16 16l0 160c0 8 8 16 16 16 9 0 16-8 16-16l0-160c0-9-7-16-16-16z"/>
<glyph glyph-name="dashboard" unicode="&#47;" d="M170 61c-4 0-8 2-11 5-6 7-6 17 0 23l84 87c6 6 14 10 22 10 8 0 16-4 22-10l41-42 84 86c3 4 6 5 11 5 4 0 8-1 11-5 6-6 6-16 0-23l-84-86c-6-7-14-10-22-10-8 0-16 3-22 10l-41 42-83-87c-3-3-7-5-12-5z m-112-61c-25 0-45 21-45 46l0 399c0 26 20 47 45 47l396 0c25 0 45-21 45-47l0-399c0-25-20-46-45-46z m0 461c-8 0-15-7-15-16l0-399c0-8 7-15 15-15l396 0c8 0 15 7 15 15l0 399c0 9-7 16-15 16z m127-256c-61 0-111 50-111 112 0 63 50 113 111 113 62 0 112-50 112-113 0-29-12-57-32-78-1-1-1-1-1-1 0 0-1-1-1-1-21-21-48-32-78-32z m-16 191c-36-7-64-40-64-79 0-44 36-80 80-80 16 0 31 5 44 13l-55 56c-3 3-5 7-5 11z m82-123c9 13 14 29 14 44 0 39-28 72-64 79l0-72z m83 96c-10 0-17 9-17 20 0 11 7 21 17 21l67 0c10 0 17-10 17-21 0-11-7-20-17-20z m0-62c-10 0-17 9-17 21 0 11 7 20 17 20l67 0c10 0 17-9 17-20 0-12-7-21-17-21z"/>
<glyph glyph-name="contacts" unicode="&#59;" d="M96 320c-35 0-64 29-64 64 0 35 29 64 64 64 35 0 64-29 64-64 0-35-29-64-64-64z m0 96c-18 0-32-14-32-32 0-18 14-32 32-32 18 0 32 14 32 32 0 18-14 32-32 32z m-32-384c-8 0-15 6-16 14l-14 114-18 0c-9 0-16 7-16 16l0 48c0 53 43 96 96 96 9 0 16-7 16-16 0-9-7-16-16-16-35 0-64-29-64-64l0-32 16 0c8 0 15-6 16-14l14-114 50 0c9 0 16-7 16-16 0-9-7-16-16-16z m352 288c-35 0-64 29-64 64 0 35 29 64 64 64 35 0 64-29 64-64 0-35-29-64-64-64z m0 96c-18 0-32-14-32-32 0-18 14-32 32-32 18 0 32 14 32 32 0 18-14 32-32 32z m-32-384c-9 0-16 7-16 16 0 9 7 16 16 16l50 0 14 114c1 8 8 14 16 14l16 0 0 32c0 35-29 64-64 64-9 0-16 7-16 16 0 9 7 16 16 16 53 0 96-43 96-96l0-48c0-9-7-16-16-16l-18 0-14-114c-1-8-8-14-16-14z m-128 320c-44 0-80 36-80 80 0 44 36 80 80 80 44 0 80-36 80-80 0-44-36-80-80-80z m0 128c-26 0-48-22-48-48 0-26 22-48 48-48 26 0 48 22 48 48 0 26-22 48-48 48z m-48-480c-8 0-15 6-16 14l-14 146-34 0c-9 0-16 7-16 16l0 48c0 71 57 128 128 128 71 0 128-57 128-128l0-48c0-9-7-16-16-16l-34 0-14-146c-1-8-8-14-16-14z m82 32l14 146c1 8 8 14 16 14l32 0 0 32c0 53-43 96-96 96-53 0-96-43-96-96l0-32 32 0c8 0 15-6 16-14l14-146z"/>
<glyph glyph-name="book" unicode="&#60;" d="M255 19c-5 0-11 1-16 3-33 13-67 19-102 19-25 0-50-3-74-10-4-1-8-1-13-2-13 0-26 6-35 15-10 10-15 22-15 36l0 306c0 22 14 41 35 47 33 12 67 17 101 17 40 0 78-7 114-21 1-1 3-1 4-1 1 0 1 0 2 0 1 0 1 0 2 0 1 0 3 0 4 1 36 14 74 21 114 21 34 0 69-5 101-17 21-6 35-25 35-47l0-306c0-5-1-9-2-13-3-13-11-24-23-31-7-4-16-7-25-7-4 0-9 1-13 2-24 7-49 10-74 10-35 0-69-6-102-19-5-2-10-3-16-3 0 0-1 0-1 0 0 0-1 0-1 0z m-118 54c36 0 70-6 103-17l0 342c0 1-1 1-1 1-33 13-67 19-103 19-31 0-62-5-91-15-8-3-13-10-13-18l0-305c0-5 2-10 5-13 4-4 8-6 13-6 2 0 3 1 5 1 26 7 54 11 82 11z m135-17c33 11 67 17 103 17 28 0 56-4 82-11 2 0 3-1 5-1 3 0 6 1 9 3 4 2 7 6 8 11 1 2 1 3 1 5l0 306c0 7-5 14-13 17-29 10-60 15-91 15-36 0-70-6-103-19 0 0-1 0-1-1z"/>
<glyph glyph-name="error" unicode="&#61;" d="M256 128c-13 0-24 11-24 24 0 13 11 24 24 24 13 0 24-11 24-24 0-13-11-24-24-24z m0 80c-9 0-16 7-16 16l0 176c0 9 7 16 16 16 9 0 16-7 16-16l0-176c0-9-7-16-16-16z m0-208c-141 0-256 115-256 256 0 141 115 256 256 256 141 0 256-115 256-256 0-141-115-256-256-256z m0 480c-124 0-224-100-224-224 0-124 100-224 224-224 124 0 224 100 224 224 0 124-100 224-224 224z"/>
<glyph glyph-name="error-2" unicode="&#62;" d="M266 492c-66-2-128-28-174-75-47-47-73-110-72-175 0-65 26-126 71-171 46-46 107-71 171-71l5 0c136 1 246 113 245 250 0 65-26 127-72 173-47 45-109 70-174 69z m-30-339c-1 8 2 16 8 22 5 6 13 9 21 9l1 0c17 0 30-13 31-30 0-8-3-16-8-22-6-6-14-9-22-9l0 0c-17 0-31 13-31 30z m10 83l0 122c0 12 9 21 20 21 12 0 21-9 21-21l0-122c0-12-9-21-21-21-11 0-20 9-20 21z"/>
<glyph glyph-name="external-link" unicode="&#63;" d="M405 256c13 0 22-9 22-21l0-128c0-37-28-64-64-64l-235 0c-36 0-64 27-64 64l0 234c0 37 28 64 64 64l128 0c13 0 21-8 21-21 0-13-8-21-21-21l-128 0c-13 0-21-9-21-22l0-234c0-13 8-22 21-22l235 0c12 0 21 9 21 22l0 128c0 12 9 21 21 21z m84 201c2-3 2-7 2-9l0-128c0-13-9-21-22-21-12 0-21 8-21 21l0 77-198-199c-5-4-9-6-15-6-7 0-11 2-15 6-9 9-9 22 0 30l198 199-77 0c-12 0-21 8-21 21 0 13 9 21 21 21l128 0c2 0 7 0 9-2 4-2 8-6 11-10z"/>
<glyph glyph-name="filters" unicode="&#64;" d="M43 405c0 12 10 22 22 22l94 0c9 25 35 42 63 42 29 0 54-17 64-42l161 0c12 0 22-10 22-22 0-11-10-21-22-21l-161 0c-10-25-35-43-64-43-28 0-54 18-63 43l-94 0c-12 0-22 10-22 21z m202 0c0 12-10 22-23 22-12 0-22-10-22-22 0-11 10-21 22-21 13 0 23 10 23 21z m-202-149c0 12 10 21 22 21l184 0c9 26 34 43 63 43 29 0 54-17 64-43l71 0c12 0 22-9 22-21 0-12-10-21-22-21l-71 0c-10-26-35-43-64-43-29 0-54 17-63 43l-184 0c-12 0-22 9-22 21z m292 0c0 12-10 21-23 21-12 0-22-9-22-21 0-12 10-21 22-21 13 0 23 9 23 21z m-292-149c0 11 10 21 22 21l94 0c9 25 35 43 63 43 29 0 54-18 64-43l161 0c12 0 22-10 22-21 0-12-10-22-22-22l-161 0c-10-25-35-42-64-42-28 0-54 17-63 42l-94 0c-12 0-22 10-22 22z m202 0c0 11-10 21-23 21-12 0-22-10-22-21 0-12 10-22 22-22 13 0 23 10 23 22z"/>
<glyph glyph-name="glasses" unicode="&#91;" d="M36 340c-5 0-10 3-12 6-6 7-4 17 3 22 19 15 43 25 67 30 1 1 2 1 3 1 8 0 14-6 15-13 1-4 0-8-2-11-2-4-6-6-10-7-20-4-39-12-55-25-3-2-6-3-9-3z m461 0c-4 0-7 1-10 3-16 13-35 21-55 25-4 1-7 3-10 7-2 3-3 7-2 11 2 7 8 13 15 13 1 0 2 0 3-1 25-5 48-15 68-30 3-2 5-6 6-10 0-4-1-8-3-12-3-3-8-6-12-6z m-93-215c-53 0-98 40-106 92l-64 0c-7-52-53-92-106-92-59 0-108 48-108 108 0 59 49 107 108 107 53 0 99-40 106-92l64 0c8 52 53 92 106 92 60 0 108-48 108-107 0-60-48-108-108-108z m0 185c-42 0-76-35-76-77 0-43 34-77 76-77 43 0 77 34 77 77 0 42-34 77-77 77z m-276 0c-42 0-77-35-77-77 0-43 35-77 77-77 42 0 77 34 77 77 0 42-35 77-77 77z"/>
<glyph glyph-name="logout" unicode="&#93;" d="M261 164c-4 0-8 2-11 5-6 6-6 15 0 21l51 50-286 0c-8 0-15 7-15 16 0 8 7 15 15 15l286 0-51 50c-3 3-4 6-4 10 0 4 1 8 4 11 3 3 7 5 11 5 4 0 8-2 11-5l77-76c1-1 2-3 3-5 0 0 0 0 0 0 1-2 1-4 1-5 0-2 0-4-1-6 0 0 0 0 0 0-1-2-2-4-3-5l-77-76c-3-3-7-5-11-5z m1-136c-88 0-170 50-208 128-2 3-2 8-1 11 2 4 4 7 8 9 2 1 4 2 7 2 6 0 11-4 14-9 23-47 64-83 114-100 21-7 43-11 65-11 31 0 60 7 88 20 48 23 84 63 101 113 17 50 14 103-9 151-33 67-104 111-180 111-30 0-60-7-87-20-38-18-69-48-89-85-3-4-8-8-14-8-2 0-5 1-7 2-7 4-10 13-6 21 23 42 58 76 102 97 32 16 66 23 101 23 88 0 169-50 207-128 27-55 31-116 11-174-20-57-62-104-117-130-32-16-65-23-100-23z"/>
<glyph glyph-name="lock-2" unicode="&#94;" d="M405 309l-16 0 0 59c0 80-64 144-144 144-79 0-144-64-144-144l0-59-16 0c-23 0-42-19-42-42l0-224c0-24 19-43 42-43l320 0c24 0 43 19 43 43l0 224c0 23-19 42-43 42z m-160-192c-23 0-42 19-42 43 0 24 19 43 42 43 24 0 43-19 43-43 0-24-19-43-43-43z m91 203c0-6-5-11-11-11l-160 0c-6 0-10 5-10 11l0 48c0 50 40 91 90 91 50 0 91-41 91-91z"/>
<glyph glyph-name="lock-1" unicode="&#95;" d="M112 0c-26 0-48 22-48 48l0 224c0 26 22 48 48 48l16 0 0 64c0 71 57 128 128 128 71 0 128-57 128-128l0-64 16 0c26 0 48-22 48-48l0-224c0-26-22-48-48-48z m0 288c-9 0-16-7-16-16l0-224c0-9 7-16 16-16l288 0c9 0 16 7 16 16l0 224c0 9-7 16-16 16z m240 32l0 64c0 53-43 96-96 96-53 0-96-43-96-96l0-64z m-96-176c-13 0-24 11-24 24 0 13 11 24 24 24 6 0 13-3 17-7 5-5 7-11 7-17 0-13-11-24-24-24z"/>
<glyph glyph-name="lightbulb" unicode="&#96;" d="M296 53l0 0c4 0 7-2 9-5 2-3 2-7 1-10l-8-15c-7-14-22-23-38-23l-8 0c-16 0-31 9-38 24l-8 14c-1 3-1 7 1 10 2 3 5 5 9 5z m-40 363c-12 0-21 10-21 21l0 54c0 11 9 21 21 21 12 0 21-10 21-21l0-54c0-11-9-21-21-21z m196 15c8-9 8-22 0-30l-38-38c-5-6-13-8-20-6-8 2-14 8-16 15-2 8 1 16 6 21l38 38c8 8 22 8 30 0z m39-175c11 0 21-10 21-21 0-12-10-22-21-22l-43 0c-12 0-21 10-21 22 0 11 9 21 21 21z m-363 137c8-8 8-22 0-30-9-8-22-8-30 0l-38 38c-8 8-8 21 0 30 8 8 22 8 30 0z m-64-137c12 0 21-10 21-21 0-12-9-22-21-22l-43 0c-11 0-21 10-21 22 0 11 10 21 21 21z m192 128c61 0 114-39 132-97 18-58-3-121-53-155-3-2-4-6-4-9l0-16c0-12-10-22-22-22l-106 0c-12 0-22 10-22 22l0 16c0 3-1 7-4 9-50 34-71 97-53 155 18 58 72 97 132 97z"/>
<glyph glyph-name="legal-scale" unicode="&#123;" d="M165 36c-8 0-14 7-14 15 0 8 6 15 14 15l76 0 0 296-116-48 64-136c0 0 0 0 0 0 0-1 0-1 0-2 1 0 1 0 1-1 0 0 0-1 0-1 0-1 0-1 0-2 0 0 0 0 0 0 0-1 0-3 0-4-1-45-38-82-83-82l-2 0-2 0-2 0c-46 2-82 40-81 86 0 0 0 1 0 1 0 0 0 0 0 1 0 0 0 1 0 1 0 0 0 1 0 1 1 1 1 1 1 2 0 0 55 116 55 116l-7-2c-2-1-4-1-5-1-6 0-12 3-14 9-2 3-2 7 0 11 1 4 4 7 8 8l183 75 0 29c0 9 7 15 15 15 8 0 15-6 15-15l0-17 152 62c2 1 3 1 5 1 6 0 12-4 14-9 1-4 1-8 0-12-2-3-4-6-8-8l-7-3c0 0 64-138 64-139 0 0 1-1 1-1 0-1 0-1 0-1 0-1 0-1 0-2 0 0 0 0 0-1 0 0 0 0 0 0 1-46-35-85-81-86l-2 0-2 0c-1 0-1 0-2 0-21 0-42 8-57 23-16 16-26 36-26 59 0 1 0 3 0 4 0 0 0 1 0 1 0 1 0 1 0 2 0 0 0 0 0 1 1 0 1 1 1 1 0 1 55 120 55 120l-107-44 0-308 76 0c8 0 14-7 14-15 0-8-6-15-14-15z m-114 121c6-23 26-40 51-41l1 0c0 0 2 0 2 0l2 0c25 0 46 17 52 41z m101 29l-47 101-47-101z m201 92c2-10 8-19 15-26 10-10 23-15 37-15 0 0 2 0 2 0l2 0 1 0c25 0 45 18 51 41l-108 0z m101 29l-47 102-47-102z"/>
<glyph glyph-name="order-value" unicode="&#124;" d="M219 248c-8 0-15 6-15 14l0 3-20 0c-9 0-15 7-15 15 0 8 6 15 15 15l48 0c6 0 12 4 15 10 4 9-1 19-9 23l-49 19c-18 7-29 24-29 43 0 25 20 46 44 47l0 3c0 8 7 14 15 14 8 0 15-6 15-14l0-3 21 0c8 0 14-7 14-15 0-8-6-15-14-15l-49 0c-9 0-17-7-17-17 0-7 5-13 11-16l49-19c24-10 35-37 25-61-6-16-22-28-40-29l0-3c0-8-7-14-15-14z m-74-222c-28 0-51 23-51 52 0 28 23 51 51 51 29 0 52-23 52-51 0-29-23-52-52-52z m0 74c-12 0-22-10-22-22 0-12 10-22 22-22 12 0 22 10 22 22 0 12-10 22-22 22z m148-74c-29 0-52 23-52 52 0 28 23 51 52 51 28 0 52-23 52-51 0-29-24-52-52-52z m0 74c-12 0-22-10-22-22 0-12 10-22 22-22 12 0 22 10 22 22 0 12-10 22-22 22z m-184 59c-20 0-38 13-43 33l-46 155c-1 4 0 8 1 11 2 4 5 6 9 7 2 1 3 1 4 1 7 0 13-5 15-11l45-155c2-7 8-11 15-11l213 0c7 0 13 4 14 10l64 240c7 26 30 44 57 44l21 0c8 0 14-7 14-15 0-8-6-15-14-15l-21 0c-13 0-25-9-28-22l-64-239c-5-19-23-33-43-33z"/>
<glyph glyph-name="scale" unicode="&#126;" d="M256 64c-44 0-80 36-80 80 0 44 36 80 80 80 44 0 80-36 80-80 0-44-36-80-80-80z m-16 125c-19-6-32-25-32-45 0-26 22-48 48-48 26 0 48 22 48 48 0 20-13 39-32 45l0-29c0-9-7-16-16-16-9 0-16 7-16 16z m-176-189c-26 0-48 22-48 48 0 5 1 10 2 14l60 192c7 20 25 34 46 34l52 0 0 46c-64 22-115 71-142 134-1 4-2 8-2 12 0 18 14 32 32 32l384 0c4 0 8-1 12-2 17-7 24-26 18-42-27-63-78-112-142-134l0-46 52 0c21 0 40-14 46-34l60-192c4-12 3-25-3-36-6-12-16-20-29-24-4-1-9-2-14-2z m60 256c-7 0-13-5-15-11l-60-192c-1-2-1-3-1-5 0-9 7-16 16-16l384 0c2 0 3 0 5 1 8 2 13 11 10 20 0 0-60 192-60 192-2 6-8 11-15 11z m180 32l0 37c-16-3-32-5-48-5-16 0-32 2-48 5l0-37z m-240 192c32-78 108-128 192-128 84 0 160 50 192 128z"/>
<glyph glyph-name="search" unicode="&#92;" d="M499 46l-139 141c63 83 51 202-28 272-78 69-196 65-270-10-74-74-78-193-9-273 68-79 186-91 269-27l139-141c11-11 27-11 38 0 10 10 10 27 0 38z m-440 261c0 81 64 146 144 146 79 0 144-65 144-146 0-80-65-145-144-145-80 0-144 65-144 145z"/>
<glyph glyph-name="seasons" unicode="&#57344;" d="M210 63c-58 0-112 30-143 78l-41-35c-3-2-7-4-10-4-5 0-9 2-12 6-3 3-4 7-4 11 1 4 2 8 6 10l47 40c-8 21-13 42-13 63 0 150 117 163 221 174 67 8 136 15 184 55 5 3 10 5 15 5 4 0 8-1 11-2 7-3 13-11 15-19 23-137-24-227-68-279-54-63-134-103-208-103z m-119 99c25-43 70-68 119-68 66 0 136 35 185 92 38 46 80 125 62 245-53-40-124-48-193-55-108-12-193-21-193-144 0-14 2-28 7-41l7 7c55 42 117 72 183 90 1 1 2 1 4 1 7 0 13-5 15-11 1-4 0-8-2-12-2-4-5-6-9-7-62-17-120-46-171-85z"/>
<glyph glyph-name="switcher" unicode="&#57345;" d="M154 70c-43 0-77 34-77 77l0 103-51-52c-3-3-7-4-11-4-4 0-8 1-10 4-6 6-6 16 0 22l76 78c1 0 1 1 1 1 2 1 3 2 4 2 0 0 1 0 1 0 2 1 3 1 5 1 2 0 4 0 6-1 0 0 0 0 0 0 1 0 3-1 4-2 0 0 1-1 1-1l77-78c6-6 6-16 0-22-3-3-7-4-11-4-4 0-8 1-11 4l-50 52 0-103c0-25 20-46 46-46l169 0c8 0 15-7 15-16 0-8-7-15-15-15z m245 139c-4 0-8 2-11 6l-76 77c-3 2-5 6-5 11 0 4 2 8 5 10 3 3 6 5 11 5 4 0 8-2 10-5l51-51 0 103c0 25-21 46-46 46l-169 0c-8 0-15 7-15 16 0 8 7 15 15 15l169 0c42 0 77-35 77-77l0-103 50 52c3 2 7 4 11 4 4 0 8-2 11-4 3-3 5-7 5-11 0-5-2-9-5-11l-76-78c-3-3-7-5-12-5z"/>
<glyph glyph-name="support" unicode="&#57346;" d="M256 192c-9 0-16 7-16 16l0 21c0 21 13 39 32 46 19 6 32 25 32 45 0 13-5 25-14 34-9 9-21 14-34 14-13 0-25-5-34-14-9-9-14-21-14-34 0-9-7-16-16-16-9 0-16 7-16 16 0 21 8 41 23 57 16 15 36 23 57 23 44 0 80-36 80-80 0-34-21-64-53-75-7-3-11-9-11-16l0-21c0-9-7-16-16-16z m0-80c-13 0-24 11-24 24 0 13 11 24 24 24 13 0 24-11 24-24 0-13-11-24-24-24z m0-112c-141 0-256 115-256 256 0 141 115 256 256 256 141 0 256-115 256-256 0-141-115-256-256-256z m0 480c-124 0-224-100-224-224 0-124 100-224 224-224 124 0 224 100 224 224 0 124-100 224-224 224z"/>
<glyph glyph-name="store" unicode="&#57347;" d="M208 249c-4 0-9 1-12 5l-88 92c-21 21-26 52-13 79 9 16 23 28 40 34 7 3 14 4 22 4 10 0 21-3 30-8 7-3 13-7 18-12l3-4 3 4c13 13 30 20 49 20 18 0 35-7 48-20 5-6 10-12 13-18 13-27 8-58-13-79l-88-92c-3-4-8-5-12-5 0 0 0 0 0 0z m-51 182c-4 0-8-1-12-2-9-3-17-10-21-18-7-15-4-31 7-43l77-80 77 80c11 12 14 28 7 43-2 3-4 6-7 9-6 7-16 11-25 11-10 0-19-4-26-11l-15-14c-3-3-7-5-11-5-4 0-8 2-11 5l-15 14c-2 3-6 5-9 7-5 2-11 4-16 4z m-21-422c-31 0-56 25-56 56 0 31 25 56 56 56 31 0 56-25 56-56 0-31-25-56-56-56z m0 80c-13 0-24-11-24-24 0-14 11-24 24-24 13 0 24 10 24 24 0 13-11 24-24 24z m160-80c-31 0-56 25-56 56 0 31 25 56 56 56 31 0 56-25 56-56 0-31-25-56-56-56z m0 80c-13 0-24-11-24-24 0-14 11-24 24-24 13 0 24 10 24 24 0 13-11 24-24 24z m-199 64c-22 0-41 14-47 35l-49 168c-3 9 2 18 10 20 2 0 3 1 5 1 7 0 13-5 15-12l50-168c2-7 8-12 16-12l230 0c8 0 14 5 16 12l69 259c8 28 33 47 62 47l22 0c9 0 16-7 16-16 0-8-7-16-16-16l-22 0c-15 0-27-9-31-23l-69-260c-6-21-25-35-47-35z"/>
<glyph glyph-name="wine-opener" unicode="&#57348;" d="M36-1c-4 0-8 2-11 5-6 6-6 15 0 21l55 56c6 6 14 9 22 9 6 0 11-2 16-5 0 0 21-9 21-9l-48 60c-8 11-8 24-2 34 4 7 11 12 19 14 2 1 5 1 7 1 5 0 10-1 15-4l75-36-51 59c0 1-1 2-1 2-5 8-6 18-3 26 3 8 8 14 15 18 5 2 9 3 14 3 3 0 7-1 10-2l45-12c1-1 2-1 3-2l22 22c-8 18-5 39 9 52l11 11-65 65c-23 23-23 62 0 86 12 11 27 18 43 18 17 0 32-7 44-18l193-194c24-24 24-62 0-86-11-12-27-18-43-18-16 0-32 6-43 18l-65 64-10-10c-9-9-20-14-33-14-6 0-13 2-19 5l-22-22c-6-6-14-9-22-9-4 0-8 1-12 2 0 0-45 13-45 13l51-60c1-1 1-2 2-2 4-7 5-16 3-23-2-8-7-15-14-19-4-3-10-5-15-5-6 0-11 2-15 4 0 0-76 37-76 37l48-60c5-7 7-15 6-23-1-9-5-16-12-20-5-4-12-6-18-6-5 0-10 1-14 3l-21 10c-1 0-2 0-3 1l-55-55c-3-3-7-5-11-5z m221 461c-8 0-15-3-21-9-12-12-12-31 0-43l194-193c5-6 13-9 21-9 8 0 16 3 21 9 12 11 12 31 0 42l-193 194c-6 6-13 9-22 9z m33-170c-6-6-6-16 0-22 3-2 6-4 10-4 4 0 8 2 11 4l11 11-22 21z"/>
<glyph glyph-name="wineglass-bottle" unicode="&#57349;" d="M144 0c-26 0-48 22-48 48l0 243c0 13 5 25 14 34l50 50 0 105c0 18 14 32 32 32l32 0c18 0 32-14 32-32l0-105 50-50c3-3 5-7 5-12 0-4-2-8-5-11-3-3-7-5-11-5-5 0-9 2-12 5l-54 55c-3 3-5 7-5 11l0 32-32 0 0-32c0-4-2-8-5-11l-54-55c-3-3-5-7-5-11l0-243c0-9 7-16 16-16l80 0c9 0 16-7 16-16 0-9-7-16-16-16z m80 432l0 48-32 0 0-48z m64-432c-9 0-16 7-16 16 0 9 7 16 16 16l32 0 0 67c-37 8-64 40-64 78l0 79c0 9 7 16 16 16l128 0c9 0 16-7 16-16l0-79c0-38-27-70-64-78l0-67 32 0c9 0 16-7 16-16 0-9-7-16-16-16z m0 177c0-26 22-48 48-48 26 0 48 22 48 48l0 63-96 0z"/>
<glyph glyph-name="wineglass-bottles" unicode="&#57350;" d="M262 10c-24 0-43 20-43 43l0 218c0 12 4 22 12 30l45 45 0 95c0 15 13 28 29 28l28 0c16 0 29-13 29-28l0-95 45-45c2-2 4-6 4-10 0-4-2-7-4-10-3-3-7-4-10-4-4 0-8 1-11 4l-49 49c-2 3-4 6-4 10l0 29-28 0 0-29c0-4-2-7-5-10l-49-49c-2-3-4-6-4-10l0-218c0-7 7-14 15-14l71 0c8 0 15-6 15-14 0-8-7-15-15-15z m71 388l0 43-28 0 0-43z m-290-388c-24 0-43 20-43 43l0 218c0 12 4 22 13 30l44 45 0 95c0 15 13 28 29 28l29 0c16 0 28-13 28-28l0-95 45-45c3-2 4-6 4-10 0-4-1-7-4-10-3-3-6-4-10-4-4 0-7 1-10 4l-49 49c-3 3-4 6-4 10l0 29-29 0 0-29c0-4-1-7-4-10l-49-49c-3-3-4-6-4-10l0-218c0-7 6-14 14-14l72 0c8 0 14-6 14-14 0-8-6-15-14-15z m72 388l0 43-29 0 0-43z m276-388c-8 0-15 7-15 15 0 8 7 14 15 14l28 0 0 60c-33 7-57 36-57 70l0 71c0 8 6 14 14 14l115 0c8 0 14-6 14-14l0-71c0-34-24-63-57-70l0-60 29 0c8 0 14-6 14-14 0-8-6-15-14-15z m0 159c0-23 19-43 43-43 23 0 43 20 43 43l0 57-86 0z"/>
<glyph glyph-name="user" unicode="&#57351;" d="M248 245c-62 0-112 51-112 112 0 62 50 112 112 112 62 0 112-50 112-112 0-61-50-112-112-112z m0 196c-46 0-84-37-84-84 0-46 38-84 84-84 46 0 84 38 84 84 0 47-38 84-84 84z m182-420c-8 0-14 7-14 14 0 93-75 168-168 168-93 0-168-75-168-168 0-7-6-14-14-14-8 0-14 7-14 14 0 108 88 196 196 196 108 0 196-88 196-196 0-7-6-14-14-14z"/>
<glyph glyph-name="settings" unicode="&#57352;" d="M174 0c-14 0-28 6-39 15-13 12-19 28-19 46l2 30c1 14-10 26-25 27 0 0 0 0-1 0 0 0-1 0-1 0l-30-2c-1 0-2 0-3 0-14 0-28 5-39 15-11 10-18 24-19 40-1 17 6 34 19 46l22 20c5 4 8 11 9 18 0 6-2 13-7 18 0 1-1 1-2 2l-22 20c-11 11-18 25-19 40-1 16 5 30 15 42 11 12 27 19 43 19 1 0 2 0 3 0l30-2c0 0 1 0 1 0 14 0 25 11 26 25 0 0 0 1 0 2l-2 30c-1 32 23 59 55 61 1 0 2 0 3 0 16 0 32-7 43-19l20-22c4-5 11-8 18-9 0 0 1 0 1 0 6 0 12 2 17 7 1 0 1 1 2 2l20 22c11 11 25 18 40 19 1 0 2 0 3 0 15 0 28-5 39-15 13-12 20-28 19-46l-2-30c0-14 11-26 25-27 0 0 1 0 1 0 1 0 1 0 1 0l30 2c1 0 2 0 3 0 15 0 28-5 39-15 11-11 18-25 19-40 1-18-6-34-19-46l-22-20c-5-4-8-11-9-18 0-7 2-13 7-18 0-1 1-2 2-2l22-20c11-11 18-25 19-40 1-16-5-30-15-42-11-12-27-19-43-19-1 0-2 0-3 0l-30 2c0 0-1 0-1 0-7 0-12-3-17-7-5-5-8-11-9-18 0-1 0-1 0-2l2-30c0-16-5-30-15-42-11-11-25-18-40-19-1 0-2 0-3 0-16 0-32 7-43 19l-20 22c-5 6-12 9-19 9-6 0-12-3-17-7-1 0-1-1-2-2l-20-22c-11-12-27-19-43-19z m-82 150c1 0 2 0 3 0 32-2 56-29 55-61l-2-30c0-8 3-15 9-20 4-4 10-7 17-7 0 0 1 0 1 0 7 1 13 4 18 9l20 22c2 1 3 3 4 4 11 10 25 15 39 15 16 0 32-7 43-19l20-22c5-6 12-9 19-9l1 0c14 1 25 13 25 27l-2 30c0 2 0 4 0 6 1 15 8 30 19 40 11 9 25 15 39 15 1 0 2 0 3 0l30-2c0 0 1 0 1 0 7 0 14 3 19 9 5 5 7 11 7 18 0 7-3 13-9 18l-22 20c-1 1-3 3-4 4-21 24-19 61 4 82l22 20c6 5 9 13 9 20 0 7-3 14-9 18-4 5-10 7-17 7 0 0-1 0-1 0l-30-2c-1 0-2 0-3 0-1 0-2 0-3 0-32 2-56 29-55 61l2 30c0 8-3 15-9 20-4 5-10 7-17 7 0 0-1 0-1 0-7 0-13-3-18-9l-20-22c-1-1-3-3-4-4-11-10-25-15-39-15-1 0-2 0-3 0-15 1-30 8-40 19l-20 22c-5 6-12 9-19 9 0 0-1 0-1 0-14-1-25-13-25-27l2-30c0-2 0-4 0-6-2-31-27-55-58-55-1 0-2 0-3 0l-30 2c0 0-1 0-1 0-7 0-14-3-19-9-5-5-7-11-7-18 1-7 4-13 9-18l22-20c1-1 3-3 4-4 21-24 19-61-4-82l-22-20c-6-5-9-13-9-20 1-7 4-14 9-18 4-5 11-7 17-7 0 0 1 0 1 0l30 2c1 0 2 0 3 0z m164-6c-62 0-112 50-112 112 0 62 50 112 112 112 62 0 112-50 112-112 0-62-50-112-112-112z m0 192c-44 0-80-36-80-80 0-44 36-80 80-80 44 0 80 36 80 80 0 44-36 80-80 80z"/>
<glyph glyph-name="menu" unicode="&#57353;" d="M38 448l436 0c15 0 27-12 27-27l0-7c0-15-12-27-27-27l-436 0c-15 0-27 12-27 27l0 7c0 15 12 27 27 27z m0-162l436 0c15 0 27-12 27-27l0-6c0-15-12-27-27-27l-436 0c-15 0-27 12-27 27l0 6c0 15 12 27 27 27z m0-161l436 0c15 0 27-12 27-27l0-7c0-15-12-27-27-27l-436 0c-15 0-27 12-27 27l0 7c0 15 12 27 27 27z"/>
<glyph glyph-name="menu-action" unicode="&#57354;" d="M122 207c-28 0-50 23-50 50 0 28 22 50 50 50 27 0 50-22 50-50 0-27-23-50-50-50z m134 0c-28 0-50 23-50 50 0 28 22 50 50 50 28 0 50-22 50-50 0-27-22-50-50-50z m134 0c-27 0-50 23-50 50 0 28 23 50 50 50 28 0 50-22 50-50 0-27-22-50-50-50z"/>
<glyph glyph-name="money-coins-bills-1" unicode="&#57355;" d="M117 0c-27 0-117 2-117 32l0 256c0 1 0 2 0 2 2 13 21 22 60 27 28 3 54 3 57 3 28 0 118-2 118-32 0 0 0-1 0-1l0-255c0-30-90-32-118-32z m-96 34c7-4 40-13 96-13 60 0 90 9 96 13l0 41c-31-11-89-11-96-11-7 0-65 0-96 11z m0 64c7-4 40-13 96-13 60 0 90 9 96 13l0 41c-31-11-89-11-96-11-7 0-65 0-96 11z m0 64c7-4 40-13 96-13 60 0 90 9 96 13l0 41c-31-11-89-11-96-11-7 0-65 0-96 11z m0 64c7-4 40-13 96-13 60 0 90 9 96 13l0 41c-31-11-89-11-96-11-7 0-65 0-96 11z m5 62c12-5 44-11 91-11 51 0 80 7 92 11-13 5-44 11-92 11-50 0-79-7-91-11z m251-96c-6 0-10 5-10 11 0 6 4 10 10 10l203 0c6 0 11 5 11 11l0 256c0 6-5 11-11 11l-448 0c-6 0-11-5-11-11l0-128c0-6-4-11-10-11-6 0-11 5-11 11l0 128c0 18 14 32 32 32l448 0c18 0 32-14 32-32l0-256c0-18-14-32-32-32z m0 89c-4 0-8 3-10 7-1 3-1 6 1 8 1 3 3 5 6 6 21 7 35 27 35 50 0 29-24 53-53 53-29 0-53-24-53-53 0-6-5-11-11-11-6 0-11 5-11 11 0 20 8 39 22 53 14 14 33 22 53 22 20 0 39-8 53-22 14-14 22-33 22-53 0-32-20-60-50-70-1-1-2-1-4-1z m-170 108c-9 0-16 7-16 16 0 9 7 16 16 16 9 0 16-7 16-16 0-9-7-16-16-16z m298-106c-9 0-16 7-16 16 0 9 7 16 16 16 9 0 16-7 16-16 0-9-7-16-16-16z m-128-48c-6 0-10 4-10 10 0 6 4 11 10 11l171 0 0 192-384 0 0-96c0-6-5-11-11-11-6 0-10 5-10 11l0 96c0 12 9 21 21 21l384 0c12 0 21-9 21-21l0-192c0-12-9-21-21-21z"/>
<glyph glyph-name="feedback" unicode="&#57356;" d="M16 0c-4 0-8 2-11 5-5 4-6 12-3 18l62 130c-21 37-32 78-32 120 0 132 108 239 240 239l0-8 0 8c45 0 89-13 127-36 54-34 92-87 107-150 15-62 4-126-30-181-44-71-120-113-204-113-42 0-83 11-119 32l-130-62c-2-1-5-2-7-2z m256 480c-115 0-208-93-208-207 0-39 11-77 31-110 3-5 4-11 1-16l-46-97 97 46c2 1 5 2 7 2 3 0 6-1 9-3 32-20 70-31 109-31 73 0 139 37 177 98 61 98 31 226-67 287-33 20-71 31-110 31 0 0 0 0 0 0z m0-336c-44 0-80 36-80 80 0 9 7 16 16 16l128 0c9 0 16-7 16-16 0-44-36-80-80-80z m-45 64c6-19 24-32 45-32 20 0 39 13 45 32z m-27 96c0-13-11-24-24-24-13 0-24 11-24 24 0 13 11 24 24 24 13 0 24-11 24-24z m168-24c-13 0-24 11-24 24 0 13 11 24 24 24 0 0 1 0 2 0 12-1 22-11 22-24 0-13-11-24-24-24z"/>
<glyph glyph-name="info" unicode="&#57357;" d="M288 144c-26 0-48 22-48 48l0 80-16 0c-9 0-16 7-16 16 0 9 7 16 16 16l16 0c18 0 32-14 32-32l0-80c0-9 7-16 16-16l16 0c9 0 16-7 16-16 0-9-7-16-16-16z m-40 192c-13 0-24 11-24 24 0 13 11 24 24 24 13 0 24-11 24-24 0-13-11-24-24-24z m8-336c-141 0-256 115-256 256 0 141 115 256 256 256 141 0 256-115 256-256 0-141-115-256-256-256z m0 480c-124 0-224-100-224-224 0-124 100-224 224-224 124 0 224 100 224 224 0 124-100 224-224 224z"/>
<glyph glyph-name="history" unicode="&#57358;" d="M288 30c-9 0-16 7-16 16 0 9 7 16 16 16 106 0 192 87 192 194 0 107-86 194-192 194-97 0-178-74-190-169l35 35c3 3 7 5 11 5 4 0 8-2 11-5 3-3 5-7 5-11 0-5-2-9-5-12l-63-64c-3-3-7-5-12-5-5 0-9 2-12 5l-63 64c-3 3-5 7-5 12 0 4 2 8 5 11 3 3 7 5 11 5 4 0 8-2 11-5l38-38c11 114 107 204 223 204 124 0 224-101 224-226 0-125-100-226-224-226z m-16 194c-9 0-16 7-16 16l0 145c0 9 7 17 16 17 9 0 16-8 16-17l0-129 96 0c9 0 16-7 16-16 0-9-7-16-16-16z"/>
<glyph glyph-name="help" unicode="&#57359;" d="M256 184c-8 0-15 7-15 16l0 20c0 20 12 37 30 44 18 6 31 24 31 43 0 12-5 24-14 33-8 8-20 13-32 13-12 0-24-5-32-13-9-9-14-20-14-33 0-8-6-15-15-15-8 0-15 7-15 15 0 21 8 40 22 54 15 15 34 23 54 23 42 0 76-34 76-77 0-32-20-61-51-72-6-2-10-8-10-15l0-20c0-9-7-16-15-16z m0-76c-13 0-23 10-23 23 0 12 10 23 23 23 13 0 23-11 23-23 0-13-10-23-23-23z m0-108c-134 0-243 110-243 246 0 135 109 246 243 246 134 0 243-111 243-246 0-136-109-246-243-246z m0 461c-117 0-213-97-213-215 0-119 96-215 213-215 117 0 213 96 213 215 0 118-96 215-213 215z"/>
<glyph glyph-name="internal" unicode="&#57360;" d="M165 85c-21 0-41 8-56 22-15 14-24 33-24 53 0 9 2 18 6 27l17 40c-6 2-9 7-9 13 0 9 7 16 16 16l167 0c9 0 17-7 17-16 0-8-8-15-17-15l-5 0-24-55c-3-6-4-12-5-18-6-38-42-67-83-67z m-43 91c-2-5-3-11-3-16 0-12 5-23 13-31 9-8 21-13 33-13 25 0 46 18 50 40 1 9 4 17 7 25l19 44-32 0-29-54c-3-5-8-8-15-8-2 0-5 0-7 2-8 3-12 13-8 20l22 40-29 0z m131-176c-42 1-84 11-121 29-4 2-7 5-8 9-2 4-1 9 1 12 2 6 8 9 14 9 3 0 5 0 7-1 33-17 71-25 108-26 113 0 185 87 213 128l-68 0c-7 0-14 5-16 12-2 7 1 14 8 18 47 28 71 85 81 110l-70-12c-1 0-2 0-3 0-4 0-8 1-11 4-3 3-5 7-5 12l0 32c0 79-66 144-146 144-39 0-75-15-103-42-12-12-22-26-29-42 4-16 18-28 35-28 0 0 0 0 0 0 1 0 2 0 2 0 0 0 2 0 2 0 12 0 24 6 32 15 3 4 8 6 13 6 5 0 10-2 13-6 7-9 19-15 32-15 0 0 1 0 1 0l1-8 0 7 0 1c0 0 0 0 0 0l0 0c0 0 1 0 1 0 1 0 1 0 1 0 18 0 34 15 35 33 1 9 8 15 16 15 0 0 1 0 1 0 9-1 16-8 15-17-2-29-23-54-51-61l0-34c0-9-8-16-17-16-9 0-16 7-16 16l0 33c-12 2-23 7-32 14-10-7-21-12-32-14l0-33c0-9-8-16-17-16-9 0-16 7-16 16l0 34c-12 3-22 9-31 17-1-6-1-13-1-19l0-48c0-6-3-11-8-14-2-1-5-2-8-2-3 0-5 1-8 2l-36 18c9-28 23-53 42-75 3-3 4-7 4-11 0-5-2-9-5-11-3-3-7-4-11-4-5 0-9 2-12 5-23 25-39 54-49 86-2 9-1 17 3 25 4 7 11 13 19 15 3 1 6 2 9 2 5 0 10-2 15-4l12-6 0 22c0 47 19 91 53 124 33 34 78 52 125 52 98 0 178-79 178-176l0-13 52 8c2 1 3 1 5 1 16 0 30-11 32-27 1-6 0-12-2-17-9-21-26-63-58-96l52 0c5 0 11-3 14-8 3-4 3-10 0-15-1-2-87-169-257-169 0 0 0 0 0 0z"/>
<glyph glyph-name="info-2" unicode="&#57361;" d="M256 512c-141 0-256-115-256-256 0-141 115-256 256-256 141 0 256 115 256 256 0 141-115 256-256 256z m5-107c18 0 32-14 32-32 0-17-14-32-32-32-17 0-32 15-32 32 0 18 15 32 32 32z m48-288l-85 0c-12 0-21 10-21 22 0 11 9 21 21 21l16 0c3 0 5 2 5 5l0 96c0 3-2 6-5 6l-16 0c-12 0-21 9-21 21 0 12 9 21 21 21l21 0c24 0 43-19 43-42l0-102c0-3 2-5 5-5l16 0c12 0 22-10 22-21 0-12-10-22-22-22z"/>
<glyph glyph-name="nav" unicode="&#57362;" d="M32 459l448 0c12 0 21-10 21-22l0-21c0-12-9-21-21-21l-448 0c-12 0-21 9-21 21l0 21c0 12 9 22 21 22z m0-171l448 0c12 0 21-10 21-21l0-22c0-11-9-21-21-21l-448 0c-12 0-21 10-21 21l0 22c0 11 9 21 21 21z m0-171l448 0c12 0 21-9 21-21l0-21c0-12-9-22-21-22l-448 0c-12 0-21 10-21 22l0 21c0 12 9 21 21 21z"/>
<glyph glyph-name="star" unicode="&#57363;" d="M143 42c-14 0-27 7-33 20-4 8-5 17-3 26l32 116-86 85c-6 7-10 16-10 26 0 10 4 19 11 26 6 6 14 10 22 11l102 10 54 108c7 13 19 21 33 21 6 0 12-2 17-4 7-4 13-10 16-17l54-108 103-10c20-2 35-20 33-40-1-9-5-17-11-23l-85-85 31-116c3-9 2-19-3-28-5-8-13-15-23-17-3-1-6-1-9-1-6 0-12 1-17 3l-106 53-106-53c-5-2-10-3-16-3z m37 184c5-5 8-14 5-21l-30-111 100 50c3 1 7 2 10 2 4 0 7-1 10-2l100-50-30 111c-2 7 0 16 6 21l82 83-98 10c-7 1-14 5-17 12l-53 105-52-105c-4-7-10-11-18-12l-98-10z"/>
<glyph glyph-name="wine" unicode="&#57364;" d="M192 0c-9 0-16 7-16 16 0 9 7 16 16 16l48 0 0 154c-32 3-62 16-87 36-43 35-67 91-61 146 0 1 1 2 1 3l0 1c0 1 0 2 0 3l17 110c2 16 16 27 32 27l228 0c16 0 29-11 32-27l17-110c0-1 0-2 0-3l0-1c0-1 1-2 1-3 6-55-18-111-61-146-25-20-55-32-87-36l0-154 48 0c9 0 16-7 16-16 0-9-7-16-16-16z m-69 352c0-41 18-80 50-105 24-19 53-30 83-30 30 0 59 11 83 30 32 25 50 64 50 105l-266 0z m262 32l-15 96-228 0-15-96z"/>
<glyph glyph-name="weight-wine" unicode="&#57365;" d="M42-10c-12 0-22 7-26 18l-15 44c-2 7-1 14 2 21 3 6 9 11 16 14 2 0 5 1 9 1l70 0 0 33-82 0c-9 0-16 7-16 16 0 9 7 16 16 16l210 0c9 0 16-7 16-16 0-9-7-16-16-16l-96 0 0-33 164 0 0 181c-29 16-50 43-60 74 0 1 0 2-1 2-3 12-5 24-5 37 0 71 59 130 131 130 72 0 130-59 130-130 0-13-1-25-5-37 0 0 0-1 0-2-10-31-32-58-60-74l0-181c0 0 38 0 38 0 7 0 14-3 19-8 5-5 8-12 8-19 0-3 0-6-1-9l-15-43c-4-12-14-19-26-19z m402 33l11 32-420 0 11-32z m-53 65l0 167c-10-3-21-4-32-4-11 0-22 1-33 4l0-167z m-117 245c17-31 50-49 85-49 35 0 67 18 85 49z m181 32c1 6 2 11 2 17 0 53-44 97-98 97-54 0-98-44-98-97 0-6 0-11 1-17l70 0-20 42c-4 8-1 18 7 22 2 1 5 1 7 1 6 0 12-3 15-9l28-56z m-382-187c-9 0-16 7-16 16 0 9 7 16 16 16l32 0 0 67c-37 8-64 40-64 79l0 79c0 8 7 16 16 16l128 0c9 0 16-8 16-16l0-79c0-39-27-71-64-79l0-67 32 0c9 0 16-7 16-16 0-9-7-16-16-16z m0 178c0-27 21-48 48-48 27 0 48 21 48 48l0 62-96 0z"/>
<glyph glyph-name="sort" unicode="&#57366;" d="M154 304l106 106 105-106z m0-84l211 0-105-106z"/>
<glyph glyph-name="emoji-rating" unicode="&#57367;" d="M502 419c-13 26-38 44-66 49-11 2-22 2-33-1-1 0-3 0-4 1-86 59-200 59-286 0-1-1-2-1-4-1-11 3-22 3-32 1-30-5-55-23-68-50-13-26-12-57 2-83 1-1 1-3 0-4-32-105 7-219 96-283 89-64 209-64 298 0 90 64 128 178 96 283-1 1-1 3 0 4 14 26 15 58 1 84z m-454-19c7 14 20 23 35 26 16 2 31-3 42-14l10-9c1-1 2-2 4-2 1 0 2 1 3 2l10 9c14 14 34 18 52 11 18-7 30-24 31-43 0-1 0-2 0-4-1-12-6-23-14-32l-78-81c-1-1-3-2-4-2-2 0-3 1-4 2l-78 81c-15 15-18 37-9 56z m111-208c10 6 23 4 30-6 14-23 40-37 67-37 27 0 53 14 67 37 7 10 20 13 30 6 10-6 13-20 6-29-23-35-61-56-103-56-42 0-80 21-103 56-3 4-4 10-3 16 1 5 4 10 9 13z m296 152l-78-81c-1-1-2-2-4-2-1 0-3 1-4 2l-77 81c-19 19-19 50 0 68 18 19 49 19 68 0l10-9c1-1 2-2 3-2 2 0 3 1 4 2l10 9c19 19 49 19 68 0 19-18 19-49 0-68z"/>
<glyph glyph-name="weight" unicode="&#57368;" d="M256 0c-115 0-208 93-208 208 0 67 33 131 88 170l1 13c3 22 5 46 7 69 0 12 3 23 10 34 1 0 1 0 1 1 9 11 23 17 37 17l128 0c14 0 28-6 37-17 0-1 1-1 1-1 7-11 10-22 10-34 2-23 4-47 7-69l1-13c55-39 88-103 88-170 0-115-93-208-208-208z m0 384c-97 0-176-79-176-176 0-97 79-176 176-176 97 0 176 79 176 176 0 97-79 176-176 176z m0 32c30 0 59-6 86-18-2 20-5 40-6 60 0 1 0 1 0 2 0 5-1 10-4 15-3 3-7 5-12 5l-128 0c-4 0-9-2-12-5-3-5-4-10-4-15 0-1 0-1 0-2-1-20-4-41-6-60 27 12 56 18 86 18z m32-304c-9 0-16 7-16 16l0 160c0 9 7 16 16 16l32 0c26 0 48-22 48-48l0-16c0-12-4-23-12-32 8-9 12-20 12-32l0-16c0-26-22-48-48-48z m32 32c9 0 16 7 16 16l0 16c0 9-7 16-16 16l-16 0 0-48z m0 80c9 0 16 7 16 16l0 16c0 9-7 16-16 16l-16 0 0-48z m-128-112c-26 0-48 22-48 48l0 128c0 9 7 16 16 16 9 0 16-7 16-16l0-128c0-9 7-16 16-16l32 0c9 0 16-7 16-16 0-9-7-16-16-16z"/>
<glyph glyph-name="website" unicode="&#57369;" d="M184 320c-7 0-13 4-15 11l-32 96c-2 5-1 10 2 14 3 5 8 7 13 7l177 0 16 53c2 6 8 11 15 11 2 0 3 0 5-1 4-1 7-4 9-7 2-4 3-9 1-13l-48-160c-2-6-8-11-15-11z m116 32l19 64-145 0 22-64z m-108-96c-13 0-24 11-24 24 0 13 11 24 24 24 13 0 24-11 24-24 0-13-11-24-24-24z m112 0c-13 0-24 11-24 24 0 13 11 24 24 24 13 0 24-11 24-24 0-13-11-24-24-24z m-144-256c-9 0-16 7-16 16 0 9 7 16 16 16l80 0 0 64-192 0c-26 0-48 22-48 48l0 256c0 26 22 48 48 48l32 0c9 0 16-7 16-16 0-9-7-16-16-16l-32 0c-9 0-16-7-16-16l0-192 448 0 0 192c0 9-7 16-16 16l-48 0c-9 0-16 7-16 16 0 9 7 16 16 16l48 0c26 0 48-22 48-48l0-256c0-26-22-48-48-48l-192 0 0-64 80 0c9 0 16-7 16-16 0-9-7-16-16-16z m-128 144c0-9 7-16 16-16l416 0c9 0 16 7 16 16l0 32-448 0z"/>
<glyph glyph-name="warning-2" unicode="&#57370;" d="M493 64l-199 381c-8 14-22 23-38 23-16 0-30-9-38-23l-199-381c-7-13-7-29 1-42 8-13 22-20 37-20l398 0c15 0 29 7 37 20 8 13 8 29 1 42z m-258 247c0 12 9 21 21 21 12 0 21-9 21-21l0-128c0-12-9-21-21-21-12 0-21 9-21 21z m22-246l-1 0c-17 0-31 14-32 32 0 8 3 16 9 23 5 6 13 9 22 9l0 0c18 0 32-13 33-31 0-8-3-17-9-23-5-6-13-9-22-10z"/>
<glyph glyph-name="warning" unicode="&#57371;" d="M266 76c-12 0-23 10-23 23 0 13 11 23 23 23 13 0 23-10 23-23 0-13-10-23-23-23z m0 77c-8 0-15 7-15 15l0 154c0 8 7 15 15 15 9 0 16-7 16-15l0-154c0-8-7-15-16-15z m-199-154c-7 0-14 2-21 5-11 5-19 15-23 27-4 11-3 24 2 35l194 395c5 11 14 19 24 24 7 4 15 6 23 6 20 0 38-12 47-30l194-395c3-6 5-13 5-20 0-13-5-25-14-33-8-9-20-14-33-14z m199 461c-3 0-6-1-9-2-5-2-8-6-10-10l-194-395c-4-8-1-18 7-22 2-1 5-1 7-1l398 0c5 0 9 1 12 4 3 3 4 7 4 12 0 2 0 4-1 7l-194 395c-4 7-12 12-20 12z"/>
<glyph glyph-name="content-editor" unicode="&#58;" d="M232 20c-4 0-8 1-11 4-3 3-5 8-4 13l15 74c1 3 2 6 4 8l149 150c10 10 24 16 39 16 15 0 29-6 39-16 11-11 17-25 17-40 0-15-6-30-17-40l-148-150c-2-2-5-4-7-4l-73-15c-1 0-2 0-3 0z m18 33l48 10 145 147c10 10 10 27 0 38 0 0-1 0-1 0-4 5-11 8-18 8-7 0-14-3-19-8l-145-147z m-193 26c-25 0-44 19-44 44l0 324c0 25 19 45 44 45l291 0c25 0 44-20 44-45l0-132c0-9-6-15-14-15-8 0-15 6-15 15l0 132c0 8-7 15-15 15l-291 0c-8 0-15-7-15-15l0-324c0-8 7-15 15-15l116 0c8 0 15-6 15-15 0-8-7-14-15-14z m116 295c-8 0-14 6-14 14 0 8 6 15 14 15l117 0c8 0 15-7 15-15 0-8-7-14-15-14z m-58-89c-8 0-15 7-15 15 0 8 7 15 15 15l175 0c8 0 15-7 15-15 0-8-7-15-15-15z m0-88c-8 0-15 6-15 14 0 8 7 15 15 15l146 0c8 0 14-7 14-15 0-8-6-14-14-14z"/>
<glyph glyph-name="internal-2" unicode="&#102;" d="M113 393c3-12 14-21 28-22 0 0 0 0 0 0 1 0 1 0 2 0 0 0 1 0 1 0 11 0 21 5 28 13 8 11 24 11 33 0 6-8 17-13 29-13 0 0 0 0 0 0 0 0 1 0 1 0 1 0 1 0 2 0 15 1 27 12 28 27 1 12 11 21 22 20 12-1 20-11 20-22-2-31-24-56-51-64l0-29c0-12-9-21-21-21-11 0-21 9-21 21l0 28c-9 2-18 6-26 12-8-6-17-10-26-12l0-28c0-12-9-21-21-21-11 0-21 9-21 21l0 29c-7 2-14 6-20 10 0-2-1-5-1-8l0-47c0-15-16-25-30-18l-23 11c8-21 20-41 35-59 8-8 7-22-2-29-8-8-22-7-29 2-22 25-39 54-49 87-4 14 1 29 12 38 11 9 27 11 40 5l5-3 0 13c0 98 79 178 177 178 98 0 178-80 178-178l0-6 44 7c13 2 26-3 35-13 8-11 10-25 5-37-15-36-30-64-49-86l38 0c16 0 26-17 19-31-3-5-8-15-16-26-13-20-29-39-47-58-53-52-116-84-191-84-42 1-83 11-120 29-10 5-15 18-10 28 5 10 18 15 28 9 32-15 67-24 102-24 62 0 116 27 161 72 14 14 26 28 36 43l-56 0c-21 0-29 28-11 39 33 19 54 50 74 96l-60-10c-12-2-24 8-24 21l0 31c0 75-61 136-136 136-54 0-100-31-122-77z m91-132c0 0 0 0 0 0l62 0c1 0 1 0 1 0l15 0c12 0 21-9 21-21 0-11-9-21-21-21l-1 0-21-52c-2-5-4-11-5-17-5-41-41-72-82-72-27 0-52 14-67 36-15 22-18 50-8 75l14 35c-4 4-7 10-7 16 0 12 9 21 21 21l15 0c0 0 0 0 1 0z m13-42l-26-51c-5-10-17-14-28-9-10 5-14 18-9 28l16 32-15 0-18-46c-5-12-3-25 4-36 7-11 19-17 32-17 20 0 38 15 41 36 1 9 4 18 7 27l15 36z"/>
<glyph glyph-name="contacts-2" unicode="&#103;" d="M219 351c-28 14-48 43-48 76 0 47 38 85 85 85 47 0 85-38 85-85 0-33-20-62-48-76 54-16 94-66 94-126l0-47c0-12-10-22-22-22l-26 0-14-136c-1-11-11-20-22-20l-94 0c-11 0-21 9-22 20l-14 136-26 0c-12 0-22 10-22 22l0 47c0 60 40 110 94 126z m174-37c-29 9-50 35-50 67 0 38 31 69 69 69 38 0 69-31 69-69 0-27-15-50-37-61 40-14 68-51 68-95l0-47c0-12-10-22-22-22l-12 0-13-105c-1-11-11-20-22-20l-62 0c-13 0-23 10-23 23 0 12 10 22 23 22l42 0 13 105c2 11 11 20 22 20l9 0 0 24c0 30-25 55-55 55-13 0-23 10-23 23 0 4 2 8 4 11z m-325 6c-22 11-37 34-37 61 0 38 31 69 69 69 38 0 69-31 69-69 0-32-21-58-50-67 2-3 4-7 4-11 0-13-10-23-23-23-30 0-55-25-55-55l0-24 9 0c11 0 20-9 22-20l13-105 42 0c13 0 23-10 23-22 0-13-10-23-23-23l-62 0c-11 0-21 9-22 20l-13 105-12 0c-12 0-22 10-22 22l0 47c0 44 28 81 68 95z m32 36c14 0 25 11 25 25 0 13-11 24-25 24-13 0-24-11-24-24 0-14 11-25 24-25z m312 0c13 0 24 11 24 25 0 13-11 24-24 24-14 0-25-11-25-24 0-14 11-25 25-25z m-156 31c22 0 40 18 40 40 0 22-18 40-40 40-22 0-40-18-40-40 0-22 18-40 40-40z m87-162c0 48-39 86-87 86-48 0-87-38-87-86l0-24 25 0c11 0 21-9 22-21l14-135 52 0 14 135c1 12 11 21 22 21l25 0z"/>
<glyph glyph-name="content-editor-2" unicode="&#104;" d="M459 213c8 8 9 21 2 28l-2 1c-3 4-9 6-14 6-6 0-11-2-15-6l-152-153-8-36 37 7z m-124-191c-4-3-8-5-12-6l-78-16c-16-3-31 12-27 28l15 77c1 5 3 9 7 12l157 158c13 13 30 20 48 20 18 0 35-7 46-19l1-1c27-26 27-69 0-95z m-157 87c13 0 24-11 24-24 0-13-11-23-24-23l-124 0c-30 0-54 24-54 54l0 342c0 30 24 54 54 54l311 0c30 0 54-24 54-54l0-140c0-13-11-23-23-23-13 0-24 10-24 23l0 140c0 4-3 7-7 7l-311 0c-4 0-7-3-7-7l0-342c0-4 3-7 7-7z m0 263c-12 0-23 11-23 24 0 12 11 23 23 23l125 0c12 0 23-11 23-23 0-13-11-24-23-24z m-62-93c-12 0-23 11-23 24 0 12 11 23 23 23l187 0c12 0 23-11 23-23 0-13-11-24-23-24z m0-93c-12 0-23 11-23 23 0 13 11 24 23 24l156 0c12 0 23-11 23-24 0-12-11-23-23-23z"/>
<glyph glyph-name="dashboard-2" unicode="&#66;" d="M260 252c0 0 0 0 0 0 0 0 0 0 0 0-21-21-50-34-82-34-64 0-116 52-116 116 0 64 52 116 116 116 64 0 116-52 116-116 0-32-13-61-34-82z m-104 149c-29-9-49-36-49-67 0-39 32-71 71-71 12 0 22 3 32 7l-48 48c-4 4-6 10-6 16z m45 0l0-58 41-41c4 10 7 20 7 32 0 31-20 58-48 67z m-7-317c-9-8-23-8-32 0-8 9-8 23 0 32l83 83c7 7 17 11 27 11 10 0 19-4 26-11l36-36 77 78c9 8 23 8 32 0 9-9 9-23 0-32l-82-82c-7-8-17-12-27-12-10 0-20 4-27 12l-35 35z m-127 383c-12 0-22-10-22-22l0-378c0-12 10-22 22-22l378 0c12 0 22 10 22 22l0 378c0 12-10 22-22 22z m0 45l378 0c37 0 67-30 67-67l0-378c0-37-30-67-67-67l-378 0c-37 0-67 30-67 67l0 378c0 37 30 67 67 67z m282-138c-12 0-22 10-22 22 0 13 10 23 22 23l63 0c12 0 22-10 22-23 0-12-10-22-22-22z m0-63c-12 0-22 11-22 23 0 12 10 22 22 22l63 0c12 0 22-10 22-22 0-12-10-23-22-23z"/>
<glyph glyph-name="reports-2" unicode="&#81;" d="M443 359l-58 0 0-280 58 0z m-58-299c0-10-8-18-18-18l-222 0c-10 0-18 8-18 18l0 19 63 0 0 377c0 19 15 35 34 35l64 0c19 0 34-16 34-35l0-377 63 0z m-63 19l0-19-18 19z m-132 0l18 0-18-19z m-63 185l-58 0 0-185 58 0z m367-185c24 0 24-37 0-37l-190 0c-11 0-19 8-19 18l0 19 63 0 0 282c0 19 16 35 35 35l63 0c19 0 34-16 34-35l0-282z m-146 0l19 0-19-19z m-63 375l-58 0 0-375 58 0z m-58-394c0-10-8-18-19-18l-190 0c-24 0-24 37 0 37l14 0 0 187c0 19 15 35 34 35l63 0c19 0 35-16 35-35l0-187 63 0z m-63 19l0-19-19 19z m-132-19l18 19-18 0z m448 19l-18 0 18-19z"/>
<glyph glyph-name="reports" unicode="&#83;" d="M16 32c-9 0-16 8-16 17 0 8 7 16 16 16l16 0 0 194c0 18 14 32 32 32l64 0c18 0 32-14 32-32l0-194 32 0 0 388c0 18 14 32 32 32l64 0c18 0 32-14 32-32l0-388 32 0 0 291c0 18 14 32 32 32l64 0c18 0 32-14 32-32l0-291 16 0c9 0 16-8 16-16 0-9-7-17-16-17z m432 33l0 291-64 0 0-291z m-160 0l0 388-64 0 0-388z m-160 0l0 194-64 0 0-194z"/>
<glyph glyph-name="store-2" unicode="&#87;" d="M281 378c9 10 11 23 5 35-4 8-12 14-22 16-9 1-19-2-25-8l-15-15c-8-8-22-8-30 0l-14 15c-7 6-16 9-26 8-9-2-17-8-22-16-5-12-3-25 6-35l71-74z m-10 93c23-3 43-18 54-39 14-28 8-62-14-84l-86-90c-9-9-23-9-31 0l-87 90c-22 22-27 56-13 84 10 21 30 36 53 39 23 4 46-3 62-19 17 16 40 23 62 19z m-132-454c-34 0-61 27-61 61 0 33 27 60 61 60 33 0 60-27 60-60 0-34-27-61-60-61z m0 43c9 0 17 8 17 18 0 9-8 17-17 17-10 0-18-8-18-17 0-10 8-18 18-18z m156-43c-33 0-60 27-60 61 0 33 27 60 60 60 34 0 61-27 61-60 0-34-27-61-61-61z m0 43c10 0 18 8 18 18 0 9-8 17-18 17-10 0-17-8-17-17 0-10 7-18 17-18z m-294 301c-3 11 3 23 14 26 12 4 24-3 27-14l49-165c1-4 5-7 9-7l226 0c4 0 8 3 9 7l68 253c8 30 35 51 66 51l22 0c11 0 21-10 21-21 0-12-10-22-21-22l-22 0c-12 0-22-8-25-19l-67-253c-6-23-27-39-51-39l-226 0c-24 0-45 16-51 38z"/>
</font>
</defs>
</svg>
